<svg id="Layer_4" data-name="Layer 4" xmlns="http://www.w3.org/2000/svg" viewBox="0 0 960 542.98"><defs><style>.cls-1{fill:#5a189a;}.cls-2{fill:#2b005e;stroke:#5a189a;stroke-miterlimit:10;}.cls-3{fill:#942ed7;}.cls-4{fill:#bb50ef;}.cls-5{fill:#240046;}</style></defs><path class="cls-1" d="M960,543,0,543V396.38c3.25-3.63,10.43-6.66,20.37-9.18C81,371.76,244.49,375,244.49,375H264s16.29,5.73,15.85,9.69,19.38,2.64,19.38,2.64,20.7,11.89,10.13,18.94,25.1,7,25.1,7l25.32,8.59,21.36-13.21,5.06,4.62s38.53-25.32,58.79-22c22.9-3.52,54.38-2.64,54.38-2.64s29.29-.66,29.73-1.32,21.8-9,23.12-15.19,6.16-14.53,12.77-13.43c.88-5-4.18-12.55-4.18-12.55l-6-9.69-.88-5.29-2-2.86,3.74-2.2s8.59,4.62,11.23,11.23c4.4,1.1,8.59,2.64,8.59,2.64l2.42,6,2.86.22,4.85,5.5v-5.5l-2.87-9,6.17.44,6.38,2.64,9.47,8.15,9.25,4,2.2,4.85,26.64,8.58s13.11-16.29,23.67-16c6.28-14.2,18.5-12.55,18.5-12.55s5.05-1.18,11.23-2.46V326a4.51,4.51,0,0,1-2.31-2.81c-.5-2-3.31,1.49-3.31,1.49s-4.12,2.48-5.11-1.16,0-15.85,0-15.85-4.63-5.78,1.32-8.75c-3-3.31,5.45-13.71,5.45-13.71l4,.83v-3.47l5.61,6.27v8.76s4.63-.66,2.15,6.77c-.26.79.73,3,.73,3s4.06-2.31,1.91,4.79-7.76,13.54-7.76,13.54l-.12,8.58c7.92-1.59,16.75-3.11,19.13-2.52-.25-4.06-.73-11.56-.73-11.56s-3.64,2.53-6.28,0-2.86-7.27-.55-7.6a28.29,28.29,0,0,1-.55-5.51l1.87-1.1v-7s.66-3.64,1.1-3.64,2.18.39,2.4.43l-2.84-2.3-.66-7.48a12,12,0,0,0,1.76-1.32c.22-.33-1-3.31-1-3.31V265.76l1,5.94,3.09,9.14,1.54.33v8s3.52.88,3,2,.06,4.73.06,4.73,2.47-.22,2.58,2.76,0,8.36,0,8.36,2.2-1.21,3.08.66-.85,8.7-6.16,11c-.93,2.59-.08,9.75.43,13.37,4.9-1,14.21-6,14.21-6h7.27L755.07,321H762s198-5.26,198-4.27Z"/><path class="cls-2" d="M210.45,437c-15,9.68-79.72,15.92-115.43,11.33-11.08-1.42-16.14-11.87-17.34-15.95l37-20.15,26.2-5L151,374.2l35.24-1.65,15.67,5.95s16.36,1.33,23.43,10.56l.19-13.64,31.21-1.22,7.26,4.3-1,4.29-15.08,4.41,2.86,9.79,6.17,7.4-16.52,20.12Z"/><path class="cls-3" d="M386.15,413.28l-4.78,12,31-9.41-3.63,4.95.66,10.9,53.17-17V389.4s-21.85.6-25.15.77-17.69,5.69-17.69,5.69-17.93,7.41-22.55,10.05S386.15,413.28,386.15,413.28Z"/><path class="cls-3" d="M406,470.48c-7.32-7.1,77.48-65.33,117.41-74,5.45.49,2.65,5.28,2.65,5.28l23.45,3.14,1.65,19.48s24.27-8.25,25.26-9.24,21.6-16,21.6-16,16.55-13.21,21.17-13.38c7.4-9.16,37.61-33.5,38.62-33.29,0,0,6.19-3.48,8.77-2.71,1.38-5.06,9.46-13.83,18.5-12.55,3.78-.86,17.84-3.8,17.84-3.8l-3.3,2,.49,5.78-2.92,2.15,1.1,2.81,1.66,7.1-5,6.44,2.2,2h2.43l.16,9,3.14.91-.83,9.58-3.8,2.64,2,1.82-.33,7.76,1.48,1.15-.16,6.69-5.78,4.38s3.3,4.13-1.82,6.93a123.61,123.61,0,0,1-8.59,12.55s4.3,3.64,2.15,4.63-6.11,5.45-6.11,5.45l1,2.64-3.8,4.46,5.12-2.31-3.8,5.28,4-2s-17.67,15.85-18.17,15.85h-2.81l-4.29,2.31s-2.64,0-3.14-.49-1.15-7.27-1.15-7.27,9.41-7.59,9.41-8.09,1.49-9.58,1.49-9.58l-2.81-.16s2.31-6.11.49-5.78-4.62,3.14-4.62,3.14l-.82-9.75-9.75-3.3-14.53-.33-1,2.64-4.79-.66-.16-1.32-11.56-.33-4,3.14h-2.31c-.5,0-1.16-3.14-1.16-3.14s-6.27-2.15-5.45-3.3S561.7,447,553.27,447.36c-4.45,15.69-21,25.1-21,25.1s0-19.49,6.28-24.11-12.22,10.57-12.22,10.57L526,453.8s-4.79,4.13-4.3.33a28.32,28.32,0,0,0,0-7.1s-4.62,4.29-5.94,2,0-8.42,0-8.42l20.31-18.17-61.6,44.92s-18.66,9.41-7.76-3c9-8.8,12.06-9.75,12.06-9.75l5.61-10.73-11.23,1-37,27.58s-11.39,3.14-7.6-2.31S406,470.48,406,470.48Z"/><path class="cls-4" d="M570.12,365v-13l-1.9-4.7-1.24,3.3s-2.64-6.77-3.22-6.69-2.31-1.48-2.31-1.48V344s-3.3-11.15-5.29-11.64c.25-1.07-1.85-5.44-1.85-5.44L552,328.29l2.07,4.38s.61,2.69.71,3.91c3.62,4.79,11.9,20.41,10.06,22.08l3.59,4.4.66,3.46Z"/><path class="cls-4" d="M582.77,337.1l2.87,9,5.62,6.85s2.72,9.74,2.72,9.41,1.07-6.93,1.07-6.93l1.16,15.19s2.64-11.06,1.49-14a36.69,36.69,0,0,1-1.66-5.44s-3-4.64-6.6-5.7c.41-2.89-3.17-8.23-3.17-8.23Z"/><path class="cls-3" d="M696.28,286l-.27,4.57-6,8.53v2.26l1.32,2.86.11,2.7,3.42-.33.44,6.82h1.54l.27,7.43-1.26.22s.71,5,.22,5-2.48-2.47-2.48-3.13-1.1-.18-1.1-.18-3.75,6.23-6.62,1.61-1-11.08-.93-12,.34-5.06.34-5.06-1.93-.61-1.71-1.1.22-6.61.22-6.61l2.26-1.38.1-2.18a31.62,31.62,0,0,1,6.12-10.92Z"/><path class="cls-3" d="M710.69,320.06s-4.66-5.57-.45-7.68a29.58,29.58,0,0,1-.42-5.34l1.87-1.1a29.49,29.49,0,0,1,.39-10.73h2.31a6.31,6.31,0,0,1-2.23-1.38s-.58-7.81-.38-8,1.65-1.23,1.59-1.45-1.21-3-1.21-3V268.29h.69l.17,12.77,1.37,3,1.16.22v6.49l1,.17-.38,7.1-1.16,1.76.06,6.39h-1.05l.39,10.18S713.22,319.51,710.69,320.06Z"/><path class="cls-1" d="M43.16,341.08s40.74-32.44,40.35-36,23.34-11.48,23.34-11.48l13.45-12.66,30.46-7.51v5.93l-24.13,27.89H133l5.93-4.55,8.71,6.73-1.19,6.33,4.35,8.7L146,330.39l17,4.36-22.16,72.39h-15l-6.73-6.72L117.93,417l-17.81,24.53-8.3,6.72L11.51,417.82l15.43-77.54Z"/><path class="cls-3" d="M32.16,341.08s40.74-32.44,40.35-36S95.85,293.6,95.85,293.6l13.45-12.66,30.46-7.51v5.93l-24.13,27.89H122l5.93-4.55,8.71,6.73-1.19,6.33,4.35,8.7L135,330.39l17,4.36-22.15,72.39h-15l-6.73-6.72L106.93,417,89.12,441.56,78.4,450.24l-22.3-2,2,9.7-12.77,2.86L-1.1,458V397.43l17-57.15Z"/><path class="cls-3" d="M752.72,294.55S754,305.86,755.3,308s5.86,9.14,5.86,9.14v15l4.46,7.25v12.57l7.63,19.81,18.08,26.79s40.49-2.64,35.21-6-47.62-75-47.62-75v-4.84l-7.47-2.21-15.24-19.37h-2.82"/><path class="cls-3" d="M868.11,287.34l-4.92,11.56,2.2,5-2.2,12.77,6.41,22.68v29.45l19.13,8.46s5.16-1.21,5-3.82-18.43-69.54-18.43-69.54L871.36,289Z"/><path class="cls-1" d="M755.72,294.55S757,305.86,758.3,308s5.86,9.14,5.86,9.14l7.65.85-1.55,11.12-6.1,3,4.46,7.25,9.13-.12,2.64,8.7-14.77,4,11.12,10.65,14.43,13.83-5.26,14.09,5.47,10.5s40.44-5.11,35.16-8.45-44.62-75-44.62-75v-4.84l-7.47-2.21-15.24-19.37h-2.82"/><path class="cls-1" d="M870.6,288.55l.62,11.56-5.83,3.77,5.5,3.83-2,8.25,3.69,23.37-3,33.44,22,6.5s5.3-3.24,5.14-5.85-18.43-69.54-18.43-69.54l-3.38-12.77Z"/><path class="cls-3" d="M833.69,347l6.6,30.2,8.81,21.24s20.1,9.84,22.82,6.94,15-16.57,15-16.57l-51.5-44.05Z"/><polygon class="cls-3" points="908.55 401.2 911.83 377.24 912.83 361.84 915.89 360.25 925.22 377.24 929.25 407.4 908.55 401.2"/><path class="cls-1" d="M835.6,344.8l17.56,19-.87,16.44,8.81,21.24s20.1,9.84,22.82,6.94,15-16.57,15-16.57l-61.6-49.29Z"/><polygon class="cls-1" points="918.9 404.39 913.93 383.82 918.74 377.38 915.13 360.5 918.34 359.24 928.22 377.24 932.25 408.96 918.9 404.39"/><path class="cls-5" d="M359.73,421.87l12.11,9.8-8.36,10.68,8.36,10.57,9.53,15.41-2.48,8.81,23.78,14.09-3.52-10.13-9.25-11.89s3.52-4.84,2.2-6.16-4.87-19.38-4.87-19.38,7.95-2.64,4.43-4.84-10.57-30.17-10.57-30.17Z"/></svg>