<svg xmlns="http://www.w3.org/2000/svg" viewBox="0 0 960 542.98"><defs><style>.cls-1{fill:#48008c;}.cls-2{fill:#240046;}.cls-3{fill:#d984fa;}.cls-4{fill:#e0aaff;}</style></defs><g id="Layer_7" data-name="Layer 7"><path class="cls-1" d="M600.33,505.76c.89-1.36,1.27-2.69-.14-3.89l-3.78-3.07-5.51-11.21s3.42-38.53,3.42-40.07,2.64-15.3,2.64-15.3l-5.51-4.52-3.74,1.44-3.85-.66a29.45,29.45,0,0,0-8-6.61c.44-6.39-4.4-14.36-4.4-14.36l-.77-11.29,2.86-6.17s1.87-1.65,1.43-10.46S567,369.14,567,369.14L558.43,365,553.8,359c4.82-2.18,2.2-10.68,2.2-10.68s1.43-3.4-2.64-3.08c-3.84.31.7-4.48,0-4.74l-2.58-.74-1-3-5,.5-4.21-3.36c-1.1,1.1,5.28-3.73,1.9-7.25.35,1-.93,3.92-2.67,4.6-3.41-6.38-5.83-4.69-4.84-4.69s1.43,4.14,0,3.7-4.3,3.31-4.3,3.31-.12,1.22-2.31-.33c-2-6.94-3.06-6.28-3.06-6.28l.08,4.72a38.11,38.11,0,0,1-7.7-4.5c.24-6.6-7.2-.26-3.74,2.42l12.44,7.05-1.76,3-.78,13.65-.09,3.86c1.06,2.8,6.48,7.7,12.76,8.47a6.78,6.78,0,0,0,5.17-1.21,12.33,12.33,0,0,1,0,4.41c-7.26,1.87-5,10.23-5.61,10.78s2.86,1.44,2.86,1.44l-10.24,17.5.89,15.07h-1.54l.43,8.16-2,4,2.2,3.86,4.4.55s-1.54,5.17.45,6.71c-2,0-3.31,6.94-3.31,6.94l4,3-.78,16-6.82,4.74s-6.83.88-7.27,1.1-.55,3.63-.55,3.63-5.06,5.95-5.39,6.06-5.95,1.76-5.95,1.76-5.28-.33-7.15,4a4.4,4.4,0,0,0,2.08,6.06L504,496.9a6.13,6.13,0,0,0,3.13,4.54h11.88l0-1.26a2.68,2.68,0,0,0-1.54-2.5l-2.93-1.85v-6.91s6.81-8.15,8.25-7.05,26-9,26-9,3.74-7.59,4.73-7.37,2.09-4.52,2.09-4.52l-4.62-2.42.22-4.62,3.41-10.9a49.32,49.32,0,0,0,6.17-6.94c7.37,5,18.6,3.08,18.6,3.08a10.91,10.91,0,0,0,.22,4.52c-5.28,10.57.33,22.13.33,22.57S581.66,483,581.66,483l-4.59,7c-.69,2.25-.85,4.33.25,6l17.46,9.66ZM551.16,397.43c-3.85,1.54-5.61,6.16-5.61,6.16l-6.5,6,.55,9.25-3.41-2.87s4.29-14.55,3-17.39c1.65.11,6.61-12,6.61-12s2.31-3.74,1.76-2.2,4.57,10,4.57,10S555,395.89,551.16,397.43Z"/><path class="cls-2" d="M602.33,505.76c.89-1.36,1.27-2.69-.14-3.89l-3.78-3.07-5.51-11.21s3.42-38.53,3.42-40.07,2.64-15.3,2.64-15.3l-5.51-4.52-3.74,1.44-3.85-.66a29.45,29.45,0,0,0-8-6.61c.44-6.39-4.4-14.36-4.4-14.36l-.77-11.29,2.86-6.17s1.87-1.65,1.43-10.46S569,369.14,569,369.14L560.43,365,555.8,359c4.82-2.18,9-3,11,.88,0,0,2.2,6.38,1.54-.11s-5.94-5.51-5.94-5.51l-5.4.66,1-6.6s1.43-3.4-2.64-3.08c-3.84.31-1.3-4.48-2-4.74l-2.31-.44-1.32-3.3L545.67,338l-3.08-4.07c-1.1,1.1,3.28-3.73-.1-7.25a7.56,7.56,0,0,1-.67,4.6c-3.41-6.38-7.82-4.73-6.83-4.73s3.42,4.18,2,3.74-4.3,3.31-4.3,3.31-.12,1.22-2.31-.33c-2-6.94-5.06-6.28-5.06-6.28l2.08,4.72a38.11,38.11,0,0,1-7.7-4.5c-3.53-6.37-7.2-.26-3.74,2.42l12.44,7.05-1.76,3s-4.3-1.87-6.61,6.06,4.74,7.7,4.74,7.7v3.75s.33,2.2,4.07,3a7.63,7.63,0,0,0-1.87,4.95s4.84-2.64,5.06-1.54,6.5,2.09,6.5,2.09l5.17-1.21a12.33,12.33,0,0,1,0,4.41c-7.26,1.87-5,10.23-5.61,10.78s2.86,1.44,2.86,1.44l-10.24,17.5-.11,16.07h-1.54l1.43,7.16-2,4,2.2,3.86,4.4.55s-1.54,5.17.45,6.71c-2,0-3.31,6.94-3.31,6.94l4,3-.78,16-6.82,4.74s-6.83.88-7.27,1.1-.55,3.63-.55,3.63-5.06,5.95-5.39,6.06-5.95,1.76-5.95,1.76-5.28-.33-7.15,4a4.4,4.4,0,0,0,2.08,6.06L506,496.9a6.13,6.13,0,0,0,3.13,4.54h11.88l0-1.26a2.68,2.68,0,0,0-1.54-2.5l-2.93-1.85v-6.91s6.81-8.15,8.25-7.05,26-9,26-9,3.74-7.59,4.73-7.37,2.09-4.52,2.09-4.52l-4.62-2.42.22-4.62,3.41-10.9a49.32,49.32,0,0,0,6.17-6.94c7.37,5,18.6,3.08,18.6,3.08a10.91,10.91,0,0,0,.22,4.52c-5.28,10.57.33,22.13.33,22.57S583.66,483,583.66,483l-4.59,7c-.69,2.25-.85,4.33.25,6l17.46,9.66ZM553.16,397.43c-3.85,1.54-5.61,6.16-5.61,6.16l-6.5,6,.55,9.25-3.41-2.87s4.29-14.55,3-17.39c1.65.11,6.61-12,6.61-12s2.31-3.74,1.76-2.2,4.57,10,4.57,10S557,395.89,553.16,397.43Z"/></g><g id="Layer_22" data-name="Layer 22"><path class="cls-1" d="M538,353.83a20.46,20.46,0,0,0,7.14,4.56,13.71,13.71,0,0,0,4,.78,11.7,11.7,0,0,0,4.08-.62c2.68-1,5.72-2.18,8.84-1.87a6.87,6.87,0,0,1,4.2,1.89,7.46,7.46,0,0,1,2,4l-.2,0a7,7,0,0,0-2.17-3.66,6.09,6.09,0,0,0-3.88-1.37,12.84,12.84,0,0,0-4.18.68c-.68.21-1.35.48-2,.76l-2,.91a14.48,14.48,0,0,1-4.59,1.1,10.59,10.59,0,0,1-4.72-.78,12.49,12.49,0,0,1-3.91-2.62,12,12,0,0,1-2.67-3.73Z"/><path class="cls-1" d="M536.12,357.12a14.36,14.36,0,0,1-2.36,1.83c-.76.53-1.68.77-2.48,1.26a11.75,11.75,0,0,0-2.19,1.73,10.43,10.43,0,0,0-1.73,2.3l-.19-.06a9.28,9.28,0,0,1,1.13-2.85,10.26,10.26,0,0,1,2-2.39,7.54,7.54,0,0,1,2.58-1.79,5.6,5.6,0,0,1,3.18-.22Z"/><path class="cls-1" d="M564.79,411.2a72.36,72.36,0,0,1-4.55,6.33c-.81,1-1.66,2-2.52,3s-1.78,1.92-2.72,2.83c-1.88,1.83-3.71,3.83-6.12,5.08a16.18,16.18,0,0,1-1.83.87,12.87,12.87,0,0,1-1.92.68,15.12,15.12,0,0,1-2,.42,17.48,17.48,0,0,1-2,.05l-.07-.29c2.28-1.4,4.25-2.79,6.25-4.27s4.15-2.75,6.13-4.33,3.88-3.28,5.74-5.05,3.66-3.59,5.41-5.49Z"/><path class="cls-1" d="M537.07,438a9.43,9.43,0,0,1,2.9-3,8,8,0,0,1,2-1,7.15,7.15,0,0,1,1.15-.28l.62-.06c.19,0,.09,0,.21-.06a12.91,12.91,0,0,0,1.41-.59l1.64-.81a35.26,35.26,0,0,0,3.34-1.83c2.16-1.37,4.28-2.85,6.33-4.42,1-.78,2-1.59,3-2.45a11.21,11.21,0,0,0,2.48-2.86l.29.09a10.72,10.72,0,0,1-2.1,3.41c-.85,1-1.75,2-2.67,2.94a64.42,64.42,0,0,1-5.94,5.25c-1,.83-2.1,1.65-3.21,2.43a15.19,15.19,0,0,1-1.8,1.06,7.82,7.82,0,0,1-2.25.74,6.82,6.82,0,0,1-.76,0l-.36,0a7,7,0,0,0-.78,0,9.65,9.65,0,0,0-1.68.31,31.13,31.13,0,0,0-3.6,1.31Z"/><path class="cls-1" d="M527.22,342.85a2,2,0,0,0-.6-1.35,2.52,2.52,0,0,0-1.14-.77,1.22,1.22,0,0,0-1.09.11c-.16.07-.3.26-.46.36l-.41.5a12.34,12.34,0,0,0-1.18,2.66,11.91,11.91,0,0,0-.65,2.86,4.29,4.29,0,0,0,.34,2.5,1.73,1.73,0,0,0,1.77.92,2.23,2.23,0,0,0,1.84-1.45,4.86,4.86,0,0,0,0-3,4.35,4.35,0,0,1,1,3.2,3.31,3.31,0,0,1-2.48,2.75,3.27,3.27,0,0,1-2.07-.11,3.54,3.54,0,0,1-1.63-1.35,5.94,5.94,0,0,1-.71-3.68,12.87,12.87,0,0,1,.87-3.32,10.51,10.51,0,0,1,1.74-3l.7-.64a3.58,3.58,0,0,1,.89-.46,2.36,2.36,0,0,1,2,.22,3.06,3.06,0,0,1,1.18,1.35A2,2,0,0,1,527.22,342.85Z"/><path class="cls-1" d="M553.36,382.62a3,3,0,0,0,1.07,4.05c2.48,1.82,3.32,11.79-1.57,14s-9,10.45-9,10.45l1.24,9.6-3.25.89L540.56,410a64.58,64.58,0,0,1,12.08-12.71c1.57-2.48,1.47-2.89,1.47-2.89S550.05,383.53,553.36,382.62Z"/><path class="cls-1" d="M566.26,435.63s13,2.7,16,1.54,2.64,4.74,2.64,4.74l-2.42,2.59,0,3.63,1.93.55L582.34,461s2.14,5.23,2,6.88a46.92,46.92,0,0,1-1.78,6.61s-1.19-9.36-1.24-9.64-2.65-5.72-2.65-5.72-3.19-9.55,2.59-15.61a26.78,26.78,0,0,1-.11-4.26S568,439.27,566.26,435.63Z"/><path class="cls-1" d="M590,430.68a1.68,1.68,0,0,0,1.65,1.44,2.81,2.81,0,0,0,2.15-1.44l-.38-3h-2v2.22Z"/><path class="cls-1" d="M538.74,430.07l-.49,3.8,2.8,2.41c-2.09,1.17-3.77,2.39-3.84,3.81l.27,5,5.5,6-.88,5.34-2,1.15.16,3.58-4.92,1.57.13-16.13-3.63-2.67s1.12-6.53,3.21-7.3c-1-1.51-.77-6.31-.15-6.46Z"/><path class="cls-1" d="M519.75,472.79c-.37-.41-2-5.45,6.44-4.79,1.57.7-2.07,2.27-3.33,2.09l-.14,2.7A2,2,0,0,1,519.75,472.79Z"/><path class="cls-1" d="M547.54,382.62c-3.61-.9-8.75-.75-9.93-2.83,0,0-2.24-8.5,4.18-10.23s3.23,2,3.23,2a5.42,5.42,0,0,0-2.6,5c.69,2.42,3,3.81,5.53,5.08C548.85,382.31,549.43,382.94,547.54,382.62Z"/><path class="cls-1" d="M532.22,400c.25.13,2.23,5.25,2.23,5.25s-.17,8-1.28,9.08-1.57,1.9-1.45,1.9,1.36.37,1.36.37v1.78s-2.93,1.32-3.3.57-2.39-5.18.27-4.58c0-.82,0-13.66,0-13.66Z"/></g><g id="Layer_17" data-name="Layer 17"><path class="cls-3" d="M536.54,429.25l5.89.55s2.48,3,2.64,3h2.75l2.32-2.26,2.47.5.94,1.49,6,.55s3.07-1.67,2.64-1.9c-1.26-.68-6.55-2.84-6.55-2.84l-1.71-2.48-2-1.54h-2.57l.37-1.37-3.52-2.48-6,.33s-3.69,1-3.74,3.47S536.54,429.25,536.54,429.25Z"/><path class="cls-4" d="M536.87,423c.22,0-1.38-2,4.4-2.53,4.12-.06,5-.06,5-.06l1.15,2.59s-4.07,3-4.56,3S536.87,423,536.87,423Z"/><path class="cls-4" d="M548.1,427.71l1.38-3.53h2.31a6.1,6.1,0,0,1,2.64,2.32s-1.49,1.87-2.37,1.87A36.19,36.19,0,0,1,548.1,427.71Z"/><path class="cls-4" d="M555.64,428.31l-1.21,2.53h2.7l-.61.94,4.33.52s1.82-.95,1.34-1.15C561.37,430.49,555.64,428.31,555.64,428.31Z"/></g></svg>