<svg id="Layer_35" data-name="Layer 35" xmlns="http://www.w3.org/2000/svg" viewBox="0 0 960 542.98"><defs><style>.cls-1{fill:#48008c;}.cls-2{fill:#240046;}</style></defs><path class="cls-1" d="M812.1,507.67s24.73-.71,26.34,2.85,26.35,14.85,25.27,9.47,0-15.17,0-15.17l10.18-15.69h5.92v-12.5l16.66-3.72,4.65,12.14v11.38l16.86-7.3,30.61,5.6s8.63.64,10.51-5.6,16,0,16,0l-2.36-16.22L946.12,468l12.49-6.22L943.7,451.46s29.13,10.08,27.92,5.31-25.77-20.27-25.77-20.27-.93-7.46,6.33-6.89,20.59,2.06,20.59,2.06,4.62-10.46-5.87-10.66-15.22-11.9-15.22-11.9l15.22-18.85L956,384.14l-10.48-16.42-14.58,1.78,9.34-12.85s16.53-5.46,11.93-10.3-12.62-3.12-12.62-3.12l-8.65-7.66,14.72-6.29s.65-6.87.49-6.21-15.21-.41-15.21-.41l7.46-5.58,3.9-4.31,2.05-7.46a2.06,2.06,0,0,0-3.34-2.08l-5.57,4.88L928.56,295l2.35-13.57-10.3-7.09,10.3-1.82-6.28-9.38-8.77-6.05,6.71-10.75-9.49-16.37,4-30.9a2.45,2.45,0,0,0-4.75-.26L892.2,239.37s-8.23,8.52-11.72,1.11-8.77-18.68-8.77-18.68l.51-12.54,3.24-13-.66-8.81a2.19,2.19,0,0,0-4.22.09l-18.25,27.17,2.24,4.76-10.08,7,7.84,11.26L833.81,241l13.77,15.14h-7.9a3.22,3.22,0,0,0-1.83,5.88l6.64,4.57-14,5.05,7.27,7.1a6.25,6.25,0,0,1-3.84,10.7l-4.71.4,4.58,24.65L812.1,337.34l9.66,12.5L804,379.34l-21,12.64s8.07,16.8,18.28,10.31,9.14,21.35,9.14,21.35l-20.43,20.54,4.21,22,20.52,10S798.12,500.72,812.1,507.67Z"/><path class="cls-1" d="M119.55,490.48l4-9.14-19.1-19.53L88.37,449.55l21-14.18-2.68-12-9.15-3.12,5.15-7.1a3.66,3.66,0,0,0-3-5.81H93.44l1.26-15.58s10.09-17.91,0-17.91c-5.57,0-1.2-2.39,3.85-4.53a5,5,0,0,0,.86-8.64l-1.9-1.31L90,356l4.72-7.49-7.41-6.45.54-12.9H79.11V318.82l-9-16.21-1.75-24.75a3.68,3.68,0,0,0-7-.18L54.5,302.61l-4.84,11.61v13.9H43.94v11.56L34.57,351l-2.75,2.31c-5.94.39-10.83.62-12,.38-3.22-.67,1.62-14,1.62-14S11,322,11.36,319.15s6-18.27,6-18.27-5.45-8.82-10.62-.52l-8.65,22-11.43,24.59v8.47l-11.15,16.53-6.85,17.34L-24.93,401l-8.47,12.09-11.69,6.86,15.61,2.82L-47.11,428l24.16,9.28s-26.58,6.85-27.38,8.46,21.56,12.5,21.56,12.5l-17.53,12.9,28.63,4,9.27,3.62,8.25,20.57s10.3,5.24,10.3,3.63c0-.43.08-2.72.19-5.84A125.51,125.51,0,0,0,28.43,494L51,490.48l8.63,16.13s8.85,1.61,7.77,0,2.69-15.06,2.69-15.06h21.5l14,8.81h13.2a4.44,4.44,0,0,0,3.09-7.64ZM11.28,473.31Z"/><path class="cls-2" d="M822.1,507.67s24.73-.71,26.34,2.85,26.35,14.85,25.27,9.47,0-15.17,0-15.17l10.18-15.69h5.91v-12.5l16.66-3.72,4.65,12.14v11.38l16.86-7.3,30.61,5.6s8.63.64,10.51-5.6,16,0,16,0l-2.36-16.22L956.12,468l12.49-6.22-14.9-10.29s29.12,10.08,27.92,5.31-25.78-20.27-25.78-20.27-.92-7.46,6.33-6.89,20.59,2.06,20.59,2.06,4.62-10.46-5.87-10.66-15.22-11.9-15.22-11.9l15.22-18.85L966,384.14l-10.48-16.42-14.58,1.78,9.34-12.85s16.53-5.46,11.93-10.3-12.62-3.12-12.62-3.12l-8.65-7.66,14.72-6.29s.65-6.87.49-6.21-15.21-.41-15.21-.41l7.46-5.58,3.9-4.31,2.05-7.46a2.05,2.05,0,0,0-3.33-2.08l-5.58,4.88L938.56,295l2.35-13.57-10.3-7.09,10.3-1.82-6.28-9.38-8.77-6.05,6.71-10.75-9.49-16.37-5.69-30.5a2.44,2.44,0,0,0-4.74-.25l-1.5,5-8.95,35.2s-8.23,8.52-11.72,1.11-8.77-18.68-8.77-18.68l.51-12.54-4.07-12.9-2.69-8.9a2.19,2.19,0,0,0-4.22.09l-8.91,27.17,2.24,4.76-10.08,7,7.84,11.26L843.81,241l13.77,15.14h-7.9a3.23,3.23,0,0,0-1.83,5.88l6.64,4.57-14,5.05,7.27,7.1a6.25,6.25,0,0,1-3.84,10.7l-4.71.4,4.58,24.65L822.1,337.34l9.66,12.5L814,379.34l-21,12.64s8.07,16.8,18.28,10.31,9.14,21.35,9.14,21.35l-20.43,20.54,4.21,22,20.52,10S808.12,500.72,822.1,507.67Z"/><path class="cls-2" d="M125.55,490.48l4-9.14-19.1-19.53L94.37,449.55l21-14.18-2.68-12-9.15-3.12,5.15-7.1a3.66,3.66,0,0,0-3-5.81H99.44l1.26-15.58s10.09-17.91,0-17.91c-5.57,0-1.19-2.39,3.85-4.53a5,5,0,0,0,.86-8.64l-1.9-1.31L96,356l4.72-7.49-7.41-6.45.54-12.9H85.11V318.82l-9-16.21-7.23-24.75a3.69,3.69,0,0,0-7-.18l-1.34,3.84v21.09l-4.84,11.61v13.9H49.94v11.56L40.57,351l-2.75,2.31c-5.94.39-10.83.62-12,.38-3.22-.67,1.62-14,1.62-14S17,322,17.36,319.15s.47-17.89.47-17.89-5.45-8.82-10.62-.52L4.05,322.35-7.38,346.94v8.47l-11.15,16.53-6.85,17.34L-18.93,401l-8.47,12.09-11.69,6.86,15.61,2.82L-41.11,428l24.16,9.28s-26.57,6.85-27.38,8.46,21.56,12.5,21.56,12.5l-17.53,12.9,28.63,4,9.27,3.62,8.25,20.57s10.3,5.24,10.3,3.63c0-.43.08-2.72.19-5.84A125.51,125.51,0,0,0,34.43,494L57,490.48l8.62,16.13s8.85,1.61,7.77,0,2.69-15.06,2.69-15.06h21.5l14,8.81h13.21a4.45,4.45,0,0,0,3.09-7.64ZM17.28,473.31Z"/><path class="cls-1" d="M39.7,358.35l2.92,7.26,19.86,1.53s22.79-7.47,21.8-7.47-24.44-1.32-24.44-1.32l-9.9-18.67-13.32,12Z"/><path class="cls-1" d="M36.62,387.2S43,385.43,44,385.43,55.22,393,55.22,393H70.41l-11.95,7.59-15.84,2.65-16.8-7.93v-14.2l6.61-12.55,1.32,18.61Z"/><path class="cls-1" d="M52.58,426.39l11.89-6.94,7.92,5.24L80,431.07l15.18-2.7h16.17L92.21,433l-14.53,8.08L60.47,433S41.35,437.61,40,436.62,25.82,421.1,25.82,421.1v-9.91l6.28,11.2Z"/><polygon class="cls-1" points="58.46 301.54 61.82 301.54 70.09 302.61 64.28 307.82 52.58 313.1 56.54 301.54 58.46 301.54"/><path class="cls-1" d="M131.7,509.41s21.6-.62,23,2.49,23,13,22.07,8.27,0-13.25,0-13.25l8.89-13.7h5.16V482.3l14.56-3.25,4.06,10.6v10l14.72-6.38,26.74,4.88s7.54.56,9.18-4.88,14,0,14,0L272,479.05l-23.27-4.32,10.9-5.42-13-9s25.44,8.8,24.38,4.64-22.51-17.71-22.51-17.71-.81-6.52,5.52-6,18,1.8,18,1.8,4-9.14-5.12-9.31-13.3-10.39-13.3-10.39l13.3-16.46-9.55-5.35-9.16-14.34-12.73,1.55,8.16-11.22s14.43-4.77,10.41-9-11-2.72-11-2.72l-7.55-6.7,12.86-5.49s.57-6,.43-5.42-13.29-.36-13.29-.36L242,343l3.4-3.77,1.79-6.51a1.79,1.79,0,0,0-2.91-1.82l-4.87,4.26-6-11.47,2.05-11.86-9-6.19,9-1.59L230,295.8l-7.67-5.27,5.87-9.39-8.29-14.3L219,240a2.14,2.14,0,0,0-4.15-.22l-13.23,35.3s-7.18,7.44-10.23,1-7.66-16.32-7.66-16.32l.44-10.94-3.56-11.27,1.73-7.73a1.92,1.92,0,0,0-3.69.09l-11.85,23.67,1.95,4.16-8.8,6.13,6.85,9.83-16.18,2.82,12,13.22h-6.9a2.82,2.82,0,0,0-1.6,5.14l5.8,4-12.21,4.41,6.35,6.2a5.46,5.46,0,0,1-3.36,9.35l-4.11.35,4,21.52-19,20,8.44,10.91-15.48,25.76-18.31,11s7,14.68,16,9,8,18.65,8,18.65L112.45,454l3.68,19.22,17.92,8.74S119.49,503.34,131.7,509.41Z"/><path class="cls-2" d="M136.07,509.41s21.6-.62,23,2.49,23,13,22.06,8.27,0-13.25,0-13.25l8.9-13.7h5.16V482.3l14.56-3.25,4.05,10.6v10l14.73-6.38,26.74,4.88s7.54.56,9.18-4.88,14,0,14,0l-2.06-14.17-23.28-4.32L264,469.31l-13-9s25.44,8.8,24.39,4.64-22.51-17.71-22.51-17.71-.81-6.52,5.52-6,18,1.8,18,1.8,4-9.14-5.13-9.31S258,423.33,258,423.33l13.29-16.46-9.55-5.35-9.15-14.34-12.73,1.55L248,377.51s14.43-4.77,10.41-9-11-2.72-11-2.72l-7.55-6.7,12.86-5.49s.56-6,.42-5.42-13.28-.36-13.28-.36l6.51-4.87,3.41-3.77,1.79-6.51a1.79,1.79,0,0,0-2.91-1.82l-4.87,4.26-6-11.47,2.05-11.86-9-6.19,9-1.59-5.49-8.2-7.66-5.27,5.86-9.39-8.28-14.3-5-26.64a2.13,2.13,0,0,0-4.14-.22l-1.32,4.35L206,275.07s-7.19,7.44-10.24,1-7.66-16.32-7.66-16.32l.44-10.94L185,237.51l-2.35-7.78a1.92,1.92,0,0,0-3.69.09l-7.77,23.72,1.95,4.16-8.8,6.13,6.85,9.83L155,276.48l12,13.22h-6.91a2.82,2.82,0,0,0-1.59,5.14l5.8,4-12.21,4.41,6.35,6.2a5.46,5.46,0,0,1-3.36,9.35l-4.11.35,4,21.52-19,20,8.44,10.91L129,397.32l-18.31,11s7.05,14.68,16,9,8,18.65,8,18.65L116.82,454l3.67,19.22,17.93,8.74S123.86,503.34,136.07,509.41Z"/><path class="cls-1" d="M136.07,360.65l19.78,5.89,13.73.21H181l14.5-4.06,8.65-5.62-12.82,4.84L177.65,359l-5.48-4.22-.91,4.72s-1.8-1.12-5.35-.5-11-4.22-11-4.22l-4.35,7.87-12.12-6.78Z"/><polygon class="cls-1" points="149.67 321.59 154.59 324.34 174.81 324.34 190.22 316.97 181.04 316.97 167.56 318.41 158.23 313.51 155.14 318.79 149.67 321.59"/><polygon class="cls-1" points="159.99 298.83 170.92 298.83 172.17 298.83 168.81 300.56 179.19 298.83 187.78 298.83 194.59 296.3 186.91 303.13 176.09 304.82 179.87 300.56 172.71 304.54 169.95 304.82 163.52 304.82 163.42 302.16 157.85 304.82 149.67 304.82 159.99 298.83"/><path class="cls-1" d="M155.85,291.3s13,2,14.1,2,11.67-.58,10.41-1-17.71-5.14-17.71-5.14l0,2.53Z"/><path class="cls-1" d="M152.42,277.16l22.11,6.5,14.37-4.19s5.56-2.92,4-3.17c-.26-.05-4-2.43-7.67-1.54,0,0-6.23,4.87-7.9,4.61-1.41-.21,4.24-4.8,4.24-4.8l-13.45,1.34c-2.76-.41,0-3.36,0-3.36Z"/><path class="cls-1" d="M162.85,264.76c.67-.39,12.69.82,12.69.82l4.92-1.59s5.18-4.42,4.79-4.23-10.72,2-10.72,2l-3.27-3.85Z"/><path class="cls-1" d="M177,233.34s1,5.46,2,5.17,4.43-1.62,4.43-1.62L180.46,241s-1.56,2.86-2.23,1.95-4.17-1.68-4.17-1.68Z"/><path class="cls-1" d="M107.07,409.71l9.72-1,8.8-4.51v6.1l4.18-7.64,7.93-5,.58,8.22,8-16.73s.53,12.26,1.11,11.39S152.56,379,152.56,379l-3.18-7.64H141.6l-9.52,19.47Z"/><path class="cls-1" d="M116.21,454.14s-1.18,5.56,0,4.18,10-7.07,10-7.07.87,8.11,2.6,6.29,6.2-9,6.2-9l2.16,6.2,7.79-8.94,1.33-11.54,6.32,9.52,3.29-10.24,10.84-15.86-2.59-12.84L157,420.1l-16.59,1.15,5.8,2.77s-11.57,5.31-10.7,5.74,8.22,1.16,8.22,1.16l-13.27,7.28-14.8,15.07"/><path class="cls-1" d="M4.05,322.35c1.19.22,3.38,3.52,7.46,1.54l4.08-2-5.77,8.77S4.19,339,4.05,337.5s3.17-10.09,3.17-10.09l-5-1.19Z"/><path class="cls-1" d="M-7.09,344.33h5.41l10.6-1.5-5.44,4S-8,355.43-8.63,355.73-7.09,344.33-7.09,344.33Z"/><path class="cls-1" d="M-20.74,369.47c.66,0,12,2.42,12,2.42s-8,4.37-4.94,5.05S-4,371.89-4,371.89l15.29-3.3,8.27-6.83-2.27,6.83-8.36,7.26L-8,391.27l-.79-6.39-8,10.79,2.86-9.74-11.45,9.74-4.4-6.39Z"/><path class="cls-1" d="M194.59,406.46,186.19,417v7.66l4-6.34,2.39-2.77.22,5.52-6.64,10.57v7.16L192,433l-1.73,9.13.17,12.33,3.1-10.13,2.65.44-1.55,22.9s1.33,2.2,1.55,0,4.18-22,4.18-22L199,405.8Z"/><path class="cls-1" d="M168,379.63l-1.12,6.8,2.24,10.35,1.6-9.65,1.77-.88,2.3,4.63-1.89,10.53,1.95,6.9,2.39-12.5s5.29,12.61,5,10.05-1.05-13.48-1.69-14.77-9.18-14.49-9.18-14.49Z"/><path class="cls-1" d="M818.19,340.55,827,346l38.76,3.19h16.28l20.59-5.77,12.29-8-18.21,6.87-19.48-4.06-7.78-6-1.3,6.7s-2.56-1.58-7.59-.7-15.65-6-15.65-6l-23.39,1.55Z"/><path class="cls-1" d="M877.64,324.65,901,326.22,916.29,323l12.7-2.87L944,312l8.18-8.39-13,8.57-15.92.26-7.13-3.3.17,5.45s-2.27-.78-6.05.8S897,313.48,897,313.48l-2.86,9.81-15.12-4.47Z"/><polygon class="cls-1" points="838.26 289.67 838.96 298.24 844.25 297.78 849.94 290.88 848.95 297.37 855.96 296.77 860.26 291.37 866.81 295.82 884.31 287.46 873.88 287.46 858.57 289.09 847.97 283.52 844.47 289.52 838.26 289.67"/><polygon class="cls-1" points="849.98 266.85 862.39 266.85 863.81 266.85 859.99 268.81 871.79 266.85 881.54 266.85 889.27 263.97 880.55 271.73 868.26 273.65 872.55 268.81 864.43 273.34 861.29 273.65 853.99 273.65 853.88 270.63 847.54 273.65 836.82 272.23 849.98 266.85"/><polygon class="cls-1" points="901.02 240.35 907.9 240.35 908.69 240.35 906.57 241.44 913.1 240.35 918.5 240.35 922.78 238.76 917.96 243.05 911.15 244.12 913.52 241.44 909.03 243.94 907.29 244.12 903.24 244.12 903.18 242.45 899.68 244.12 893.74 243.33 901.02 240.35"/><path class="cls-1" d="M841.38,258.11s18.69,2.48,19.91,2.48,13.25-.66,11.82-1.15S853,253.61,853,253.61l-2.64,1.69Z"/><path class="cls-1" d="M839.54,240.52l27,9.09,16.32-4.75s6.31-3.31,4.59-3.6c-.3,0-4.59-2.76-8.72-1.75,0,0-7.08,5.53-9,5.24-1.59-.24,4.82-5.46,4.82-5.46l-15.28,1.53c-3.13-.47,0-3.82,0-3.82Z"/><path class="cls-1" d="M851.59,228.15c.77-.44,14.42.94,14.42.94l5.59-1.81s5.88-5,5.44-4.81-12.17,2.29-12.17,2.29l-3.72-4.37Z"/><path class="cls-1" d="M907.33,219.17s1.13,6.19,2.22,5.86,5-1.84,5-1.84l-3.26,4.71s-1.77,3.25-2.53,2.21-4.74-1.91-4.74-1.91Z"/><path class="cls-1" d="M911.55,200.31s.47,12.05,1.56,11.73l3.86-.33-1.33,5.39s-3.31,1.26-4.07.22-3.31-8-3.31-8Z"/><path class="cls-1" d="M789.87,392.79l11-1.14,10-5.13v6.93l4.75-8.68,9-5.73.66,9.33,9.07-19s.59,13.92,1.25,12.94,5.89-24.41,5.89-24.41l-3.6-8.68h-8.85l-10.81,22.12Z"/><path class="cls-1" d="M792,445.4s-1.33,6.33,0,4.75,11.31-8,11.31-8,1,9.21,3,7.14,7-10.26,7-10.26l2.46,7.05,8.85-10.16,1.5-13.11,7.18,10.82L837,422l12.31-18-2.95-14.58-8,17.37-18.84,1.31,6.58,3.15s-13.14,6-12.15,6.52-5.74,9.58-5.74,9.58l-16.81,17.12"/><path class="cls-1" d="M889.27,389.1l-9.53,12v8.7l4.57-7.2,2.72-3.15.25,6.27-7.54,12v8.12l6.54-6.61-2,10.37.2,14,3.52-11.5,3,.5-1.76,26s1.51,2.5,1.76,0,4.75-25,4.75-25l-1.5-45.27Z"/><path class="cls-1" d="M929.56,410l-6.79,18.34,3.47,10.55,2.67-10.55,2.05-4.9,2.79,7.51-4.36,17.55,3.23,9.85,5.3-10.62,1.74,13.35,5.8,16.89-.3-15.34,3.84-.59,8.21,32.22s2.82,2.43,2.13-.7-4.19-32.2-4.19-32.2l-19.82-54.26Z"/><path class="cls-1" d="M914.52,360.81l-1.27,7.73,2.54,11.75,1.81-11,2-1,2.61,5.26-2.15,12,2.22,7.84,2.72-14.2s6,14.33,5.68,11.42-1.2-15.32-1.92-16.78-10.43-16.46-10.43-16.46Z"/><path class="cls-1" d="M889.39,296.29l2.16,4.91,5.86,5.81-3-7,.78-1.33,3.47,2,3.24,7.69,4.21,3.67-3.75-9.18s8.82,6,7.54,4.44-6.42-8.36-7.39-8.93-12.16-5.56-12.16-5.56Z"/></svg>