<svg id="Layer_9" data-name="Layer 9" xmlns="http://www.w3.org/2000/svg" viewBox="0 0 960 542.98"><defs><style>.cls-1{fill:#f7941d;}</style></defs><path class="cls-1" d="M490.75,329.68c0-.05,0-.09,0-.13s0,0,0-.07a.28.28,0,0,1,.2,0Z"/><path class="cls-1" d="M493,334.79l-.08.16h0C492.34,334.77,492.93,334.76,493,334.79Z"/><path class="cls-1" d="M495.55,326.93c-.11,0-.11,0-.06,0S495.53,326.92,495.55,326.93Z"/><path class="cls-1" d="M498.69,332v0h0S498.68,332,498.69,332Z"/><path class="cls-1" d="M504.68,341.93c-.05,1.07-1.77,1.42-2,.26-.14-.85-.25-1.92-1.19-2.22a1.8,1.8,0,0,1-1.41-1.73c0-.37.19-.9-.07-1.22s-.68-.42-.91-.81a1.63,1.63,0,0,1-.19-1.1c-.11.09-.33.19-.41.26a1,1,0,0,1-1.67-.45,2.45,2.45,0,0,1,0-1.47,1.7,1.7,0,0,1-.66,0,1.3,1.3,0,0,1-.47-.16.91.91,0,0,1-.53.11l-.1.24a2.15,2.15,0,0,1-1.36,1.27,1.52,1.52,0,0,1-.87,0l.08-.16s-.61,0-.11.15h0l-.11.19a.91.91,0,0,1-.84.49c-.09,1.05-1.74,1.42-1.93.25a7.4,7.4,0,0,1,.08-2.1,3.46,3.46,0,0,0-.38-1.63,2.35,2.35,0,0,1,0-1.59c.11-.28.61-1,1.05-1.08,0,0,0,.06,0,.07s0,.08,0,.13l.2-.2a.28.28,0,0,0-.2,0c0-.13,0-.36,0-.37,0-.25,0-.49.06-.74a3.32,3.32,0,0,1,.57-1.51,2.36,2.36,0,0,1,2.84-.88c.46.2.82.78,1.27.92-.05,0-.05,0,.06,0s0,0-.06,0a.42.42,0,0,0,.13-.07,2.61,2.61,0,0,1,.27-.19,2,2,0,0,1,.81-.25,3.06,3.06,0,0,1,2.65,1.59,1.43,1.43,0,0,1-.33,1.74,4.42,4.42,0,0,1,.64.52,4.12,4.12,0,0,1,1.1,1,1.71,1.71,0,0,1,.11.14,2.89,2.89,0,0,1,.89.55,5.49,5.49,0,0,1,1.27,2.3,20.31,20.31,0,0,1,.34,2.67C503.68,338.63,504.76,340.09,504.68,341.93Z"/><path class="cls-1" d="M482.06,326.84a1.21,1.21,0,0,1-1.49.2,1.36,1.36,0,0,1-.55-.7s0-.07,0-.11l0,0-.2-.08a10.51,10.51,0,0,1-1.46-.4,1.61,1.61,0,0,1-.93-1.1,1.64,1.64,0,0,1,.55-1.55,2.05,2.05,0,0,1,1.49-.57,1.46,1.46,0,0,1,.94.42,1.6,1.6,0,0,1,1.22.71,3.44,3.44,0,0,1,.39.85c.09.26.2.52.3.77A1.45,1.45,0,0,1,482.06,326.84Z"/><path class="cls-1" d="M472.12,317s0,.05,0,.08v0a4.47,4.47,0,0,1-.49,1.47.5.5,0,0,1-.91-.12.47.47,0,0,0-.25-.23L470,318a3.11,3.11,0,0,1-.85-.68,2.16,2.16,0,0,1-.49-2,1.69,1.69,0,0,1,1.43-1.23,1.89,1.89,0,0,1,1.65.92A3,3,0,0,1,472.12,317Z"/><path class="cls-1" d="M497.73,354a.69.69,0,0,1-.86-.35c-.11.42.47.75.86.58s.57-.31.83-.45a.92.92,0,0,0,.08-.27C498.36,353.63,498.07,353.83,497.73,354Z"/><path class="cls-1" d="M544.35,403.48a70,70,0,0,1-8.07-5.34,35,35,0,0,0-4.09-2.62,5.13,5.13,0,0,0-1.69-.66c-.77-.13-1.8.22-2.46-.33a8.54,8.54,0,0,1-.88-1.21l.3,0a.56.56,0,0,0,.49-.8c.46-.18.89-.41,1.34-.61.24-.11.49-.23.73-.36a3.3,3.3,0,0,0,.32-.18,4.75,4.75,0,0,1,3.16,0,1.55,1.55,0,0,1,.22.12c.29.18.61.42.94.66h0s0,0,0,0l.35.22a1.69,1.69,0,0,0,2.11.07.52.52,0,0,0,0-.71.55.55,0,0,0-.7-.14c-.07,0-.4-.13-.51-.19a7.85,7.85,0,0,1-.78-.49,6.88,6.88,0,0,0-1.64-.95,2.36,2.36,0,0,0-.38-.1,3.71,3.71,0,0,0-.81-.08,6.53,6.53,0,0,0-1.85.32c-.25.06-.49.14-.72.22s-.72.29-1.07.46a15.53,15.53,0,0,0-1.46.76.59.59,0,0,0-.24.3,4,4,0,0,0-2.36,0c-.61.19-1.31.72-2,.89a1.15,1.15,0,0,0-.51-.49,1.81,1.81,0,0,0-.8-.19.56.56,0,0,0,0-.12,1.58,1.58,0,0,0-.9-1c-.87-.31-2.14.65-2.71-.33a.43.43,0,0,0-.19-.19h0a.31.31,0,0,0-.06-.13,3.71,3.71,0,0,1-.72-1.34,4.87,4.87,0,0,1,.27-1.89c.31-1.13.58-2.53-.12-3.54a8.56,8.56,0,0,0-1.24-3.6,7.05,7.05,0,0,1-.61-2.15,21.07,21.07,0,0,0-.31-2.5.55.55,0,0,0-1.05,0,8.37,8.37,0,0,0,.43,4.77,20,20,0,0,1,1.51,3.5.68.68,0,0,0,0,.14l.06.14a1.75,1.75,0,0,1,.13.28.64.64,0,0,1,.22.4.55.55,0,0,1-.07.38,2.3,2.3,0,0,0-.05-.45.62.62,0,0,1-.24-.42h0a1.37,1.37,0,0,0-.53-.21l-.71-.09a9.43,9.43,0,0,0-1.3-.06,10.09,10.09,0,0,0-1.34.11l-.31.05h-.27l-.05,0h0a.62.62,0,0,0-.43-.09c-.05-.41,0-.84,0-1.25a2.25,2.25,0,0,0-.47-1.27,4.16,4.16,0,0,0-.42-.42,1.23,1.23,0,0,1-.26-.35,1.18,1.18,0,0,1-.09-.46c0-.23,0-.48,0-.68a5.77,5.77,0,0,0-.28-1.23,4.59,4.59,0,0,0-1.37-2.21c-.55-.4-1.06.34-.84.83s.51.77.7,1.19a5.62,5.62,0,0,1,.41,1.28c.09.45.06.92.13,1.37l0,.12a8,8,0,0,1-1.3-.12,5.11,5.11,0,0,1-3.1-2.33A10.9,10.9,0,0,1,503,376a7.12,7.12,0,0,0-2.48-3.5c-.57-.42-1.23-.68-1.81-1.07s-.77-1.06-1.41-1.26c-.13-.49-.29-1-.37-1.41a21.56,21.56,0,0,1-.31-3.67,5.66,5.66,0,0,0-1.87-4.64c-1.27-1.1-2.86-1.87-3.56-3.49a29.1,29.1,0,0,1-1-3.81,3.88,3.88,0,0,0,1.4.17c.64,0,1-.15,1.57-.15a2.86,2.86,0,0,1,1.24.22c.49.17.9.33,1.23.46.63.24,1,.29,1.58.49a1.16,1.16,0,0,0,1.34-.62c-.26.14-.52.31-.83.45s-1-.16-.86-.58a.69.69,0,0,0,.86.35c.34-.15.63-.35.91-.49a.92.92,0,0,1-.08.27l.08,0a1.1,1.1,0,0,1,1.33.1c.65.49,1.27,1,1.89,1.55a18.94,18.94,0,0,1,3.47,3.74c1.37,2,3.25,5,6,5.07h0a19.52,19.52,0,0,1-.26,2.54,5,5,0,0,0,.83,3.09c.56.8,1.51,1.29,1.79,2.24.14.48.93.68,1.17.16.51-1.17-.48-2-1.22-2.72a3.8,3.8,0,0,1-1-3.4,9.78,9.78,0,0,0,.15-2.2,5.63,5.63,0,0,1,1.38.53l.27.17.12.08h0l0,0a3.82,3.82,0,0,1,.45.45s0,0,.07.08h0l.05.08a1.91,1.91,0,0,1,.16.27,1.32,1.32,0,0,0,.53.65.64.64,0,0,0,.86-.22c.34-.64-.15-1.33-.56-1.81a1.94,1.94,0,0,0-.2-.21,1.51,1.51,0,0,1,1.28-.08c.75.31,1.37.89,2.11,1.22,1.17.54,2.66,1,3.79.37l.06,0,0,0,.11.06,3.75,2.06a.59.59,0,0,0,.44.08,3.36,3.36,0,0,0,1.44.93c.31.15.41.24.43.59a5.36,5.36,0,0,0,.06,1.13,2.14,2.14,0,0,0,2.08,1.51,1.19,1.19,0,0,0,.39,1.05,1.72,1.72,0,0,0,1.84.27l.4-.16a2.3,2.3,0,0,0,0,.23c0,.17-.07.33-.1.5a3.11,3.11,0,0,0,.07,2,1.2,1.2,0,0,0,1.51.66,1.72,1.72,0,0,0,1-1.46,4.87,4.87,0,0,1,.7-2l0,0s0,0,0,0a1.49,1.49,0,0,0,.15.2,4.28,4.28,0,0,0,.1,1.31,6.33,6.33,0,0,1-.37,1.69,5.5,5.5,0,0,0,0,1.67,5.64,5.64,0,0,0,3.6,4.61.56.56,0,0,0,.43-1,4.78,4.78,0,0,1-2.34-2.64,5,5,0,0,1,.34-3.31,2.93,2.93,0,0,0,0-1.47c-.09-.82.33-1.19.6-1.9a2.09,2.09,0,0,0-.46-2.49.88.88,0,0,0-1.05-.13,4.64,4.64,0,0,1-.42.25c-.21-1-.64-2.16-1.59-2.33-.66-.11-1.27.42-1.78.75l-1.59,1c-.07-.74-.13-1.48-.2-2.22a5.34,5.34,0,0,0-.54-2.56c-1-1.52-2.35-.54-3.39.25-2,1.48-3.68-1.62-5-2.74a4,4,0,0,1-1.83-2.5c-.11-.83-.17-1.67-.22-2.5a3.8,3.8,0,0,1,2,1.92c.18.32.34.65.5,1a.88.88,0,0,0,1.52-.89,2.7,2.7,0,0,1-.4-.77.05.05,0,0,1,0,0c-.43-1.22-.21-2.69-1-3.8-1.08-1.42-3.09-1.26-4.22-2.57-.92-1.06-1.1-3.71-2.6-4.14-1.14-.33-2.13.84-2.89,1.94a17.67,17.67,0,0,1-1-2.76.5.5,0,0,0-.48-.4,9.81,9.81,0,0,1-.2-1.63.67.67,0,0,0-1.33,0,10.58,10.58,0,0,0,2.1,7,1.12,1.12,0,0,0,.8.44,8,8,0,0,0,.62.69c.82.78,1.93,1.29,2.55,2.27a10,10,0,0,1,.92,3.17A6,6,0,0,0,520,361c.31.36.68.67,1,1a1.7,1.7,0,0,1,.37,1.22c-1.26-.67-2.42-1.49-3.74-2.06a9.21,9.21,0,0,0-3.74-.66,7.6,7.6,0,0,1-4.24-1.21c-2.47-1.59-3.81-4.11-5.55-6.38a6.74,6.74,0,0,0-2.59-2.18,4.33,4.33,0,0,0-1.87-.39c-.28,0-1.61.47-1.73.35a.6.6,0,0,0-.47-.18,3.54,3.54,0,0,0-.42-.35,6.66,6.66,0,0,0-3.38-1.11,9.13,9.13,0,0,0-1.65.09l-.3,0c0,.17,0,.28.05.35.07.26,0,.2-.2-.19a1.21,1.21,0,0,0-.2-.14l.35,0s0-.1,0-.15a3.13,3.13,0,0,0-.16-.62,3.17,3.17,0,0,0-1.41-1.71,4.31,4.31,0,0,0-1.92-.49h-.39a.81.81,0,0,1,0,.39c0-.07-.32-.32-.42-.41s-.05,0,0,0l-.05,0,.12,0h.33c0-.24-.12-.51-.14-.56a3,3,0,0,0-1.21-1.51c-.69-.45-1.45-.68-1.89-1.43s-.36-1.84-.7-2.72a1.33,1.33,0,0,0-2.6.35,7.36,7.36,0,0,0,.84,3.2,5.84,5.84,0,0,0,1.93,2.2,1.84,1.84,0,0,0,.16.1c0-.27,0-.25,0,.05a.05.05,0,0,0,0-.05v.05c0,.23,0,.3,0,.22a3.57,3.57,0,0,0,.25,2.41,2.82,2.82,0,0,0,1,1.07c.25.44.52.87.75,1.32a19,19,0,0,1,1.08,2.6,25.83,25.83,0,0,1,1.13,5c.42,3.49-.48,7.1.66,10.5a.19.19,0,0,0,0,.07.76.76,0,0,0,1.3.23v0l.12-.39h0c.11-.42.19-.86.29-1.28.07-.25.13-.51.21-.76l.13.09a2.57,2.57,0,0,1,.42.45,6.27,6.27,0,0,1,.57,1.09,2.52,2.52,0,0,0,.83,1,3,3,0,0,0,1.38.28h0a.74.74,0,0,0,.08.13l.43.79a9.3,9.3,0,0,0,.64,1.15c0,.24.1.49.13.74a20.24,20.24,0,0,1,0,2.06,3.21,3.21,0,0,0,1.8,2.79,32.7,32.7,0,0,0,3.56,1.63,5.66,5.66,0,0,1,2.7,1.93.53.53,0,0,0,.88.06l.17.11a6.52,6.52,0,0,0,2,.81,3,3,0,0,0,2.07,0,.61.61,0,0,1-.07-.1.48.48,0,0,1-.07-.2l.12.13.11.11a1.46,1.46,0,0,1,.17.22h0a1.14,1.14,0,0,1,.2.72,7.59,7.59,0,0,0,0,1.43,1.83,1.83,0,0,0,.71,1.13c.36,0,.72.09,1.07.16a1.17,1.17,0,0,1-1-.1l-.09-.06a21.14,21.14,0,0,1-5-.77c-1.36-.5-2.82-.62-4.18-1.12s-1.83-1.79-2.9-2.75a2.93,2.93,0,0,0-1.24-.63c-.9-.27-1-.54-1.37-1.4-.51-1.15-.93-3-1.94-3.76s-2.69-.81-3.86-1.06c-1.63-.36-3.84-.5-4.38-2.38a.53.53,0,0,0-.3-.35,2.28,2.28,0,0,0-.84-1c-.35-.22-.78-.27-1.13-.48-.76-.44-.89-1.12-1.09-1.92-.36-1.38-.66-2.78-.92-4.19-.13-.71-1.2-.41-1.08.3.21,1.26.45,2.5.75,3.74a6.23,6.23,0,0,0,.89,2.53c.57.66,1.78.75,2.12,1.59s0,2.08.28,3a6.8,6.8,0,0,0,3.09,4,6.48,6.48,0,0,0,2.43.82,4.07,4.07,0,0,1,1.59.27c.51.3.71,1,1,1.48a4,4,0,0,0,1.35,1.63c.77.5,1.74.58,2.49,1.08s.84,1.56,1.5,2.19a7.37,7.37,0,0,0,2.22,1.21c.86.4,1.27,1.13,2,1.66l0,0a.62.62,0,0,0,.91.45c.12,0,.37.07.51.14s.51.31.76.47a11,11,0,0,1,1.31,1.05,34.38,34.38,0,0,1,2.31,2.66.54.54,0,0,0,.9-.52,4,4,0,0,0-.45-1c-.21-.31-.44-.61-.67-.89a10.81,10.81,0,0,0-1.42-1.45c-.28-.24-.58-.47-.88-.69a9,9,0,0,1,2.68.08,13.78,13.78,0,0,0,3.38.41c.53,0,1.15-.31,1.64-.07s.59.65,1,.87a3.24,3.24,0,0,0,1.18.32,2.67,2.67,0,0,1,1.47,1,4.67,4.67,0,0,0,2.64,1l-.11.05a.58.58,0,0,0,.29,1.08,7.29,7.29,0,0,0,1.84-.26l.32-.1h.12a1.12,1.12,0,0,1-.19.29,1.1,1.1,0,0,0-.15.26,1.24,1.24,0,0,0,1.22,1.63c1.37,0,2.24-2.25,3.68-1.69.59.23.82,1,1.23,1.47a2.46,2.46,0,0,0,1.42.7c.67.1,1.36-.07,2,.08a8,8,0,0,1,2.08,1c1.28.77,2.49,1.64,3.69,2.51,2.45,1.8,4.82,3.65,7.77,4.53A.55.55,0,0,0,544.35,403.48Zm-11-12.21v0l0,0ZM523.7,364.1a1.1,1.1,0,0,1,.15.16l-.06,0s0,0,0,0l-.31-.15-.06,0Zm-12.76-1.37a.38.38,0,0,0,0,.21,1.82,1.82,0,0,1,.15.27.62.62,0,0,1,.07.19.58.58,0,0,1-.22-.46,2.61,2.61,0,0,0-.2-.3Zm-19.63-13.5h-.08S491.27,349.2,491.31,349.23Zm-3.63.47c0-.17,0-.14,0,.07A.25.25,0,0,0,487.68,349.7Zm8.8,20.93,0-.05,0-.05a1.55,1.55,0,0,1,.08.23Zm.42,1.67a.63.63,0,0,1-.33,0,.79.79,0,0,0,.28-.32c0-.23-.08-.45-.14-.67a.75.75,0,0,1,.14.12h0c.17.19.3.5.45.67A.52.52,0,0,1,496.9,372.3Z"/><path class="cls-1" d="M484.2,345.91a.05.05,0,0,0,0-.05C484.19,345.59,484.21,345.61,484.2,345.91Z"/><path class="cls-1" d="M487.8,346.62c0-.07-.32-.32-.42-.41s-.05,0,0,0l-.05,0,.12,0h.33A.81.81,0,0,1,487.8,346.62Z"/><path class="cls-1" d="M491.52,349.37a1.21,1.21,0,0,0-.2-.14l.35,0c0,.17,0,.28.05.35C491.79,349.82,491.72,349.76,491.52,349.37Z"/><path class="cls-1" d="M524.42,359.86a3.45,3.45,0,0,1-.5-1C524.1,359.21,524.26,359.54,524.42,359.86Z"/><path class="cls-1" d="M525.94,359a2.7,2.7,0,0,1-.4-.77C525.68,358.46,525.82,358.71,525.94,359Z"/><path class="cls-1" d="M526.94,361.32a.88.88,0,0,0,.25.58.83.83,0,0,0,.44.24.89.89,0,0,0,1-.42l-1.11-.3v.07l0-.16a1.64,1.64,0,0,0,.28,1.19,2.93,2.93,0,0,0,.36.43,1.46,1.46,0,0,0,.28.21,1.6,1.6,0,0,0,.23.1.9.9,0,0,0,.4,0l-.17,0h0l-.16,0a1.35,1.35,0,0,0,.28,0,.59.59,0,0,0,.52-.35.48.48,0,0,0,0-.29.59.59,0,0,0-.15-.32l-.09-.09.1.12v0l.06.15c0-.07,0-.14-.08-.2a.71.71,0,0,0-.16-.18l-.13-.12a1.54,1.54,0,0,1-.25-.26l.11.14a1.7,1.7,0,0,1-.26-.45l.06.16a3.33,3.33,0,0,0-.16-.4l.06.15a.09.09,0,0,1,0-.05l0,.16v0a.6.6,0,0,0-.18-.42.65.65,0,0,0-.34-.17.67.67,0,0,0-.39.07l-.12.1a.61.61,0,0,0-.15.26v0l.06-.15,0,.05.1-.12,0,0,.12-.09-.07,0,.15-.06-.09,0,.16,0h-.1l.15,0-.1,0,.14.06-.07-.05.11.09,0-.05.1.12a.13.13,0,0,1,0,0l.06.14a.14.14,0,0,1,0-.06l0,.16v0a.58.58,0,0,0-.58-.58.59.59,0,0,0-.58.58Z"/><path class="cls-1" d="M523.41,365.57l-.21,0,.06,0,0,0Z"/><path class="cls-1" d="M523.85,364.26l-.06,0s0,0,0,0l-.31-.15-.06,0,.3.06A1.1,1.1,0,0,1,523.85,364.26Z"/><path class="cls-1" d="M510.94,362.73a.38.38,0,0,0,0,.21,2.61,2.61,0,0,0-.2-.3Z"/><path class="cls-1" d="M498.64,353.49a.92.92,0,0,1-.08.27c-.26.14-.52.31-.83.45s-1-.16-.86-.58a.69.69,0,0,0,.86.35C498.07,353.83,498.36,353.63,498.64,353.49Z"/><path class="cls-1" d="M510.94,362.73a.38.38,0,0,0,0,.21,2.61,2.61,0,0,0-.2-.3Z"/><path class="cls-1" d="M511.15,363.4a.58.58,0,0,1-.22-.46,1.82,1.82,0,0,1,.15.27A.62.62,0,0,1,511.15,363.4Z"/><path class="cls-1" d="M511.15,363.4a.58.58,0,0,1-.22-.46,1.82,1.82,0,0,1,.15.27A.62.62,0,0,1,511.15,363.4Z"/><path class="cls-1" d="M523.77,364.22l-.31-.15A.39.39,0,0,1,523.77,364.22Z"/><path class="cls-1" d="M514.83,356.39a1.31,1.31,0,0,0-.44-.85,3.71,3.71,0,0,0-.56-.49,9.25,9.25,0,0,0-1.08-.67c-.36-.2-.74-.38-1.1-.6l-.25-.17c-.1-.07.08.07,0,0l-.13-.11-.09-.1s0,0,0,0l-.06-.07c-.05-.09-.11-.18-.15-.27-.26-.53-1.18-.16-1,.41a3.9,3.9,0,0,0,1.87,2,11.11,11.11,0,0,1,1.12.63l.12.08.07.05c.06,0,0,0,0,0s.19.16.23.21.13.14.2.21l0-.05.13.17a.76.76,0,0,0,.23.17.62.62,0,0,0,.92-.53Z"/><path class="cls-1" d="M526.64,381.89a17.6,17.6,0,0,0-1.5-1.94l-.67-.64a1.86,1.86,0,0,1-.38-.12c-.36-.15-.72-.33-1.1-.53-.72-.38-1.33-.6-2-.94a4,4,0,0,1-1.62-1.38,2.36,2.36,0,0,1-.22-2.28c1-1.74,3,.27,3.93,1a13.43,13.43,0,0,1,2.7,2.93c.33.53.62,1.09.95,1.63a12.3,12.3,0,0,1,.91,1.67A.55.55,0,0,1,526.64,381.89Z"/><path class="cls-1" d="M490.48,368.9a.65.65,0,0,1-.12.39Z"/><path class="cls-1" d="M490.35,369.31a.68.68,0,0,1-1.33-.18.49.49,0,0,1,0-.12.19.19,0,0,0,0,.07A.76.76,0,0,0,490.35,369.31Z"/><path class="cls-1" d="M494.35,369.78h0Z"/><path class="cls-1" d="M494.36,369.79Z"/><path class="cls-1" d="M496.9,371.68a.47.47,0,0,1,0,.26c0-.23-.08-.45-.14-.67a.75.75,0,0,1,.14.12h0A1.26,1.26,0,0,1,496.9,371.68Z"/><path class="cls-1" d="M496.55,370.76l-.07-.13,0-.05,0-.05A1.55,1.55,0,0,1,496.55,370.76Z"/><path class="cls-1" d="M497.3,372.07a.52.52,0,0,1-.4.23.63.63,0,0,1-.33,0,.79.79,0,0,0,.28-.32c0-.23-.08-.45-.14-.67a.75.75,0,0,1,.14.12h0C497,371.59,497.15,371.9,497.3,372.07Z"/><path class="cls-1" d="M496.55,370.76l-.07-.13,0-.05,0-.05A1.55,1.55,0,0,1,496.55,370.76Z"/><path class="cls-1" d="M508.91,381.89l-.05,0,0,0a.61.61,0,0,1-.07-.1.48.48,0,0,1-.07-.2l.12.13Z"/><path class="cls-1" d="M496.55,370.76l-.07-.13,0-.05,0-.05A1.55,1.55,0,0,1,496.55,370.76Z"/><path class="cls-1" d="M496.9,372.3a.63.63,0,0,1-.33,0,.79.79,0,0,0,.28-.32C496.87,372.06,496.89,372.18,496.9,372.3Z"/><path class="cls-1" d="M509.08,382.11a.52.52,0,0,1-.26-.16.61.61,0,0,1-.07-.1.48.48,0,0,1-.07-.2l.12.13.11.11A1.46,1.46,0,0,1,509.08,382.11Z"/><path class="cls-1" d="M509.78,380.85a1.23,1.23,0,0,1-.26-.35,1.18,1.18,0,0,1-.09-.46.43.43,0,0,1,.16.17,2.62,2.62,0,0,1,.15.39A1.87,1.87,0,0,1,509.78,380.85Z"/><path class="cls-1" d="M511.07,385.55a1.17,1.17,0,0,1-1-.1l-.09-.06C510.36,385.43,510.72,385.48,511.07,385.55Z"/><path class="cls-1" d="M516,384.61a.55.55,0,0,1-.07.38,2.3,2.3,0,0,0-.05-.45.62.62,0,0,1-.24-.42h0l.1.06,0,0A.64.64,0,0,1,516,384.61Z"/><path class="cls-1" d="M516,384.61l-.12-.07a.62.62,0,0,1-.24-.42h0a1.77,1.77,0,0,0,0-.32l.06.14a1.75,1.75,0,0,1,.13.28A.64.64,0,0,1,516,384.61Z"/><path class="cls-1" d="M516,384.61a.55.55,0,0,1-.07.38,2.3,2.3,0,0,0-.05-.45c0-.11-.06-.22-.1-.33A.64.64,0,0,1,516,384.61Z"/><path class="cls-1" d="M521.16,393.66a1.12,1.12,0,0,1-.19.29,1.44,1.44,0,0,1-.25-.18l.32-.1Z"/><path class="cls-1" d="M530.51,390.18c-.25.06-.49.14-.72.22l.54-.21A.28.28,0,0,1,530.51,390.18Z"/><path class="cls-1" d="M533.17,389.94a3.71,3.71,0,0,0-.81-.08.53.53,0,0,1,.59-.05Z"/><path class="cls-1" d="M533.32,391.29l0,0h0Z"/><path class="cls-1" d="M534.66,392.22a.49.49,0,0,1-.49-.13,6.86,6.86,0,0,0-.67-.65,1.55,1.55,0,0,1,.22.12C534,391.74,534.33,392,534.66,392.22Z"/><path class="cls-1" d="M535,392.45l-.06,0a.58.58,0,0,1-.24-.14l-.05-.06Z"/><path class="cls-1" d="M533.32,391.29l0,0h0Z"/><path class="cls-1" d="M534.68,392.23h0S534.68,392.22,534.68,392.23Z"/><path class="cls-1" d="M554.18,396.1a.87.87,0,0,1-1,.4c-.64-.26-.73-.68-1-1.25a9.4,9.4,0,0,0-.6-1.07c-.45-.71-1-1.38-1.37-2.11a8.48,8.48,0,0,1-1.06-2.59c0-.15-.06-.29-.08-.44a7,7,0,0,0-.45.86,6.35,6.35,0,0,0-.37,1.93,5.87,5.87,0,0,0,.12,2.09,1.18,1.18,0,0,0,.07.2,4.68,4.68,0,0,0,.54.3,1.54,1.54,0,0,1,.94.75.63.63,0,0,1-.1.74l-.13.12a21.81,21.81,0,0,1,2.6,3.35c.28.52-.33,1.31-.89.89a25.68,25.68,0,0,1-3.31-3.52,8,8,0,0,1-1-1.32,10.91,10.91,0,0,1-1.75-2.14c-1.22-2-2-3.9-4.38-4.68-1.6-.53-3.54-.71-5.34-1.15a29.92,29.92,0,0,1,2.46,2.82,7.66,7.66,0,0,0,3.24,2.06c1.15.4,2.54.71,3.27,1.77a.81.81,0,0,1-1.09,1.1,6.62,6.62,0,0,0-1.61-.93c-.63-.24-1.27-.43-1.87-.73a9.79,9.79,0,0,1-3.17-2.47,19,19,0,0,0-2.74-3.07,7.42,7.42,0,0,1-2.34-2.46,5,5,0,0,1-1-1.48.57.57,0,0,1,1-.57c2.08,3.41,7.05,2.52,10.29,3.84a8.12,8.12,0,0,1,4.07,3.81l.24.41a7.72,7.72,0,0,1,.67-2.72,7,7,0,0,0,.95-1.94c.07-.63-.32-1.15-.14-1.79a.69.69,0,0,1,.83-.47,1.54,1.54,0,0,1,1.17,1.48.53.53,0,0,1,.35.52,7.47,7.47,0,0,0,.56,2.63,8.64,8.64,0,0,0,1.2,2.19c.51.68,1.06,1.32,1.52,2S554.73,395.34,554.18,396.1Z"/><path class="cls-1" d="M511.07,385.55a1.17,1.17,0,0,1-1-.1l-.09-.06C510.36,385.43,510.72,385.48,511.07,385.55Z"/><path class="cls-1" d="M539.71,397.66a11.53,11.53,0,0,0,2,2.48,6.65,6.65,0,0,0,2.77,1.75c1.13.35,2.3.58,3.44.84a7.28,7.28,0,0,0,3.61.26.59.59,0,0,0-.15-1.15,30.35,30.35,0,0,1-3.26-.66c-1-.23-2-.4-3-.64a5.12,5.12,0,0,1-2.39-1.31,15.18,15.18,0,0,1-2.07-2.17.59.59,0,0,0-1,.6Z"/><path class="cls-1" d="M512.8,410l-.26,0h0l.14-.07A.91.91,0,0,0,512.8,410Z"/><path class="cls-1" d="M512.8,410l-.26,0h0l.14-.07A.91.91,0,0,0,512.8,410Z"/><path class="cls-1" d="M499.92,423.2a.43.43,0,0,1-.42,0Z"/><path class="cls-1" d="M516.12,411.25l-.18.18a.67.67,0,0,0-.52-.2.54.54,0,0,0-.23-.63l.28-.19C516,410.05,516.52,410.82,516.12,411.25Z"/><path class="cls-1" d="M508.13,419.07a.77.77,0,0,0-.46.12c.08-.29.15-.58.23-.87A2.57,2.57,0,0,1,508.13,419.07Z"/><path class="cls-1" d="M515.08,435.61l-.7.22a.5.5,0,0,1-.54-.12Z"/><path class="cls-1" d="M515.08,435.61l-.7.22a.5.5,0,0,1-.54-.12Z"/><path class="cls-1" d="M490,432.93a.52.52,0,0,1-.14.22l-.64.16Z"/><path class="cls-1" d="M534.62,431.94c-1.13.61-.91,2.08-.73,3.12a2.41,2.41,0,0,1-.4,2c-.42.58-1,1-1.45,1.56a3,3,0,0,0-.59,3.31,2.94,2.94,0,0,1,.46,1.9,6.49,6.49,0,0,1-1,2c-.33.51.43,1.08.84.65a4.34,4.34,0,0,0,1.56-3.4,7.71,7.71,0,0,0-.63-1.74,1.65,1.65,0,0,1,.4-1.8c.8-.95,1.83-1.72,2.13-3a4.58,4.58,0,0,0-.07-2,2.09,2.09,0,0,1,.28-1.84c.34-.51-.32-1.07-.8-.81Z"/><path class="cls-1" d="M522.92,445.3a6.4,6.4,0,0,0-3.94,3,6.76,6.76,0,0,1-1.44,2,10.58,10.58,0,0,1-2.09,1.33.53.53,0,0,0,.4,1,6.82,6.82,0,0,0,3.93-3.07,6,6,0,0,1,1.45-2,11.61,11.61,0,0,1,2.13-1.24c.58-.29.18-1.21-.44-1Z"/><path class="cls-1" d="M496.42,451.56a2.54,2.54,0,0,1-.94,2.07c-.61.57-1.26,1.11-1.91,1.64a37.85,37.85,0,0,1-4.15,3c-.5.31-1.11-.45-.64-.82l.19-.15a.56.56,0,0,1,.13-.62,8.08,8.08,0,0,0,1.92-3.24,7.84,7.84,0,0,1,1.83-3,3.66,3.66,0,0,1,.84-.57,1.54,1.54,0,0,1,1.34.1A2,2,0,0,1,496.42,451.56Z"/><path class="cls-1" d="M456,456.8l-.38.19a.52.52,0,0,1-.55.51,2.57,2.57,0,0,0-.48,0c-.23.13-.46.26-.68.41a7.27,7.27,0,0,0-1.39,1.38,6.9,6.9,0,0,1-2.73,2.3,1.6,1.6,0,0,1-1.92-.4,1.76,1.76,0,0,1-.16-1.86,2.85,2.85,0,0,1,1.53-1.28c.65-.27,1.3-.5,1.94-.8a12.55,12.55,0,0,1,2-.81,4.4,4.4,0,0,1,.88-.16h0a5.82,5.82,0,0,1,1.68-.48C456.26,455.73,456.46,456.57,456,456.8Z"/><path class="cls-1" d="M490,432.93a.52.52,0,0,1-.14.22l-.64.16Z"/><path class="cls-1" d="M423.81,470a2.68,2.68,0,0,1-.07.27,5.26,5.26,0,0,1-1.4,2.32,7.34,7.34,0,0,1-2.36,1.61,6.75,6.75,0,0,1-2.9.58,4.16,4.16,0,0,0-1.65,0,1.36,1.36,0,0,0-.49.29c-.34.56-.62,1.18-1.32,1.31a.54.54,0,0,1-.52-.89,14.63,14.63,0,0,1,1.6-2.15,4.26,4.26,0,0,1,2.67-.94,7.41,7.41,0,0,0,1.7-.11,3.84,3.84,0,0,0,1.28-.71c.82-.65,1.63-1.32,2.46-2l.23-.18a.47.47,0,0,1,.31-.12h0A.54.54,0,0,1,423.81,470Z"/><path class="cls-1" d="M423.8,470.2l-.06.06a2.68,2.68,0,0,0,.07-.27.54.54,0,0,0-.45-.66A.51.51,0,0,1,423.8,470.2Z"/><path class="cls-1" d="M411.32,476.2a2.61,2.61,0,0,0-1.61-.07,5.72,5.72,0,0,0-1.35.42,9.57,9.57,0,0,0-2.48,1.6,2,2,0,0,0-.79,1.28,1.15,1.15,0,0,0,.82,1.24c.91.26,1.85-.46,2.51-1a6.91,6.91,0,0,0,1-1.08,6.17,6.17,0,0,0,.76-1.19,4.73,4.73,0,0,0,1-.14C411.61,477.1,411.8,476.44,411.32,476.2Zm-4.94,3.37a0,0,0,0,0,0-.05.39.39,0,0,0-.1-.08s.13,0,.19,0A.68.68,0,0,1,406.38,479.57Z"/><path class="cls-1" d="M406.38,479.57a0,0,0,0,0,0-.05.39.39,0,0,0-.1-.08s.13,0,.19,0A.68.68,0,0,1,406.38,479.57Z"/><path class="cls-1" d="M423.35,469.33a.47.47,0,0,0-.31.12l-.23.18,0-.05A.46.46,0,0,1,423.35,469.33Z"/><path class="cls-1" d="M394.54,468.65l-.43.12a6.81,6.81,0,0,0,.93-.93A.69.69,0,0,1,394.54,468.65Z"/><path class="cls-1" d="M385,442.77a3.74,3.74,0,0,1-1.42.52c.43-.17.85-.34,1.27-.54Z"/><path class="cls-1" d="M385,442.77a3.74,3.74,0,0,1-1.42.52c.43-.17.85-.34,1.27-.54Z"/><path class="cls-1" d="M398.37,425.41h0c-.48.19-.93.4-1.34.58a.55.55,0,0,1-.75-.27,3.18,3.18,0,0,0,.89-.9C397.62,424.14,398.7,424.72,398.37,425.41Z"/><path class="cls-1" d="M424,428.57l-.8.37.14-.19A.52.52,0,0,1,424,428.57Z"/><path class="cls-1" d="M400.89,428.85a8.75,8.75,0,0,0-2.43-.34.42.42,0,0,1,.22-.11A2.79,2.79,0,0,1,400.89,428.85Z"/><path class="cls-1" d="M424,428.57l-.8.37.14-.19A.52.52,0,0,1,424,428.57Z"/><path class="cls-1" d="M424,428.57l-.8.37.14-.19A.52.52,0,0,1,424,428.57Z"/><path class="cls-1" d="M400.89,428.85a8.75,8.75,0,0,0-2.43-.34.42.42,0,0,1,.22-.11A2.79,2.79,0,0,1,400.89,428.85Z"/><path class="cls-1" d="M285.06,469.35c0,.09,0,.18-.05.26a.66.66,0,0,0,0-.24.13.13,0,0,1,0-.06Z"/><path class="cls-1" d="M326.54,423.16c-1.14,1.39-1.41,3.18-1.87,4.86a26,26,0,0,1-1.15,3,6.94,6.94,0,0,0-.57,2.51,10.37,10.37,0,0,0-.72,2,2.55,2.55,0,0,0,1,3,.61.61,0,0,0,.62-1.06,1.18,1.18,0,0,1-.37-.69,1.85,1.85,0,0,1,0-.62.52.52,0,0,0,.49-.55c-.15-1.94,1.66-3.48,2.65-5a15,15,0,0,0,2.5-5.37,2.84,2.84,0,0,0-.5-2.47C327.94,422,327,422.56,326.54,423.16Z"/><path class="cls-1" d="M383.14,480.08c-.7.61-1.41,1.18-2.14,1.72a15.71,15.71,0,0,1-4,1.57,54.36,54.36,0,0,0-5.95,1.16c-2,.7-3.7,1.87-5.88,1.21-1.77-.53-3.12-1-4.89-.13-.93.45-1.75,1.11-2.72,1.49a9,9,0,0,1-3.1.5,51,51,0,0,1-6.42-.39,3.57,3.57,0,0,1-1.68-.38c-.39-.25-.48-.54-.75-.89a2.72,2.72,0,0,0-1.44-.93,2.41,2.41,0,0,0-2.93,1.29.39.39,0,0,0,0,.28,2.52,2.52,0,0,0-.54,2.31c.43,1.47,1.86,1.54,3.14,1.31,2.18-.4,4.59-1.32,6.8-.68a24.69,24.69,0,0,0,2.52.82c.89.15,1.71-.29,2.56-.19s.79,1.29,1.34,1.84a4,4,0,0,0,1.78.9,10.18,10.18,0,0,0,4.65.32c1.75-.36,2.53-2,4.23-2.4a16.86,16.86,0,0,0,5.12-2.26,85.68,85.68,0,0,0,8.3-5.31c1-.52,1.88-1.12,2.8-1.74a.6.6,0,0,0,.08-.94A.53.53,0,0,0,383.14,480.08Z"/><path class="cls-1" d="M310.5,500.16a20.42,20.42,0,0,0-2.46.57c-.87.14-1.29-.33-1.75-1-.29-.41-1.11-.33-1.09.27a.6.6,0,0,0-.22.74c.69,1.5,2.37,2.42,3.81,3.11a4,4,0,0,0,2.63.14,25.25,25.25,0,0,1,3.11-.53.7.7,0,0,0,.48-1.18A6.6,6.6,0,0,0,310.5,500.16Z"/><path class="cls-1" d="M320.78,490.49a3.3,3.3,0,0,1-1.28.67c-1.81-.45-3.63-.89-5.43-1.37l-3-.84c-1-.27-2.62-.47-3.2-1.35a.72.72,0,0,0-1.22,0c-.41.68-.87-.26-1.1-.9a1.46,1.46,0,0,0-.23-.65.72.72,0,0,0-1.32.55c0,.06,0,.12,0,.18a3.43,3.43,0,0,1-.77-.93c-.11-.43-.11-.89-.22-1.32a4.5,4.5,0,0,0-1.09-1.95,13.17,13.17,0,0,0-3.84-2.52,10.1,10.1,0,0,1-4-2.94c-.75-1.11-.88-2.65-2-3.47-.76-.53-1.63-.52-2.31-1.21a10,10,0,0,1-1.66-2.37,12.45,12.45,0,0,1-1.45-5.85c0-1.68.19-3.42-.55-5s-2.59-2.36-3.15-4a9.8,9.8,0,0,1-.24-3.2c0-1.21,0-2.42.05-3.63a3.92,3.92,0,0,1,.19-1.74c.2-.38.58-.55.83-.9a3.31,3.31,0,0,0,.3-1.64c1.17,1.17,2.39,2.27,3.48,3.5a46.79,46.79,0,0,1,4,5.12.63.63,0,0,0,1.15-.22c2.07,2.13,2.57,5.16,3.51,7.95a.58.58,0,0,0,1.11-.31c-.52-3.5-2-7.41-4.95-9.54a.51.51,0,0,0,.07-.5A69.8,69.8,0,0,0,287.73,440c-.83-1.65-.16-3.41-.59-5.17a10,10,0,0,0-2.3-4.13c-.4-.47-1.32,0-1.07.63,1.49,3.68-1.6,7-3.06,10.15a21.22,21.22,0,0,0-2.17,9.42,15.58,15.58,0,0,0,.79,4.49,18,18,0,0,0,2.14,4c.86,1.35.73,3.55,1,5.14a25.2,25.2,0,0,0,1.53,5.31.42.42,0,0,0,.18.21l1.9,4.92a11.43,11.43,0,0,0,1.52,3.07,3.43,3.43,0,0,0,1.14,1c.63.33,1.39.2,2,.5,1.32.66,1.28,2.7,1.92,3.87,1.31,2.41,4.26,3,6.13,4.79.91.88,1.32,2.26,2.4,3a2.21,2.21,0,0,0,2.7-.12.44.44,0,0,0,.07-.64c.08-.25.19-.79.2-.81s1,2.06,1.75,2.29a1.76,1.76,0,0,0,.6.1.51.51,0,0,0,.89.18c.11-.13.22-.27.35-.41l.22-.08a.55.55,0,0,0,.39-.48,1.54,1.54,0,0,1,.45-.21c.68-.18,1.29.4,1.79.76a4.06,4.06,0,0,0,3.68.78,3.49,3.49,0,0,1,2-.24,9.87,9.87,0,0,0,1.85.41,4.24,4.24,0,0,0,1.51-.19l.39.07a.6.6,0,0,0,.71-.63,4.28,4.28,0,0,0,.72-.63A.53.53,0,0,0,320.78,490.49Zm-35.34-23.57c-.05.6-.17,1.19-.27,1.77,0,.22-.08.44-.11.66s0,.18-.05.26a.66.66,0,0,0,0-.24.13.13,0,0,1,0-.06h0c-.45-1.8-1-3.58-1.31-5.41a11.78,11.78,0,0,1-.16-1.53,4.23,4.23,0,0,0,.33.53,12.42,12.42,0,0,1,1.37,2h0c0,.27,0,.53,0,.79s.11.82.19,1.23Z"/><path class="cls-1" d="M288,428.55a3.75,3.75,0,0,0,.75,1.42c.61.7,2,1.61,2.79.74,1-1.07-.27-2.91.72-4.09.38-.45.81-.82,1.1-1.25a.56.56,0,0,0,.57,0,2.82,2.82,0,0,0,1.14-2.53c0-.67-.24-1.32-.25-2a2.92,2.92,0,0,1,.94-2,24.7,24.7,0,0,0,3.94-6.63c.3-.68-.5-1.46-1.1-.85a29.85,29.85,0,0,0-3.31,4c-1,1.51-1.75,3.16-2.66,4.73a15.22,15.22,0,0,1-3.64,3.95c-1.18,1-2.24,2.46-1.88,4.09A.59.59,0,0,0,288,428.55Z"/><path class="cls-1" d="M549.64,405.38c-.32-.05-3.28,0-6.33,0a16.88,16.88,0,0,0-4.45-.82.63.63,0,0,0-.58.82,17.15,17.15,0,0,1-1.93-.07,9.45,9.45,0,0,0-9.29-6.91,30.8,30.8,0,0,1-5.73-.9,39.22,39.22,0,0,0-5.24-1.06c-2.1-.23-4.17-.35-6.24-.78-3.61-.76-7.43-1.51-10.73-3.23-1.59-.82-3-2.19-4.79-2.56a7.26,7.26,0,0,0-2.46,0,9.91,9.91,0,0,1-1.53.15,1.84,1.84,0,0,1-.7-.07c-.37,0-.41-.08-.12-.34a.59.59,0,0,1,.51-.44.43.43,0,0,0,.26-.35,20.14,20.14,0,0,1,4.89-1.59c.7-.13.39-1.16-.29-1a19.42,19.42,0,0,0-6.63,2.36c-.58.34-1.6.73-1.75,1.45a1.82,1.82,0,0,0,.93,1.66c1.83,1.17,4.25-.79,5.74.87a9.42,9.42,0,0,0,4.78,3.1,47.75,47.75,0,0,1,6.61,2.17,29.11,29.11,0,0,0,6.6,2.27c.81.15,1.63.26,2.45.34-2.6,0-5.21,0-7.81,0a12.69,12.69,0,0,1-4.64-.86,10.3,10.3,0,0,0-4-.76,9.27,9.27,0,0,0-3.9,1c-1.45.73-2.77,2.13-4.51,1.76a.52.52,0,0,0-.64.32c-2.36-1.37-5.54-.7-8,.52-.53.26-.16,1.18.4,1,2.49-1,6-1.93,8,.4a22.68,22.68,0,0,0-4,5.2,4.45,4.45,0,0,1-1,1.58c-.39.33-.85.58-1.25.92a8.79,8.79,0,0,0-1.79,2.1c-1.22-.45-2.47.33-3.38,1.2-1.36,1.3-2.72,2.62-4,4-.73-.32-1.17-1.36-1.6-2A3.66,3.66,0,0,0,469,415a9.61,9.61,0,0,0-3.44.4,5.59,5.59,0,0,0-1.62.71,6.29,6.29,0,0,0-1.29,1.44c-.76.87-1.29.43-2.24.27a3.15,3.15,0,0,0-1.4,0c-1.46.4-2.89,1.7-4.12,2.55s-2.64,1.86-3.9,2.87a42.75,42.75,0,0,1-3.7,3c-2.88,1.78-5.7-.2-8.61-.77a7,7,0,0,0-3.69.2c-1.4.48-2.79,1.48-4.31,1.35-1.3-.11-2.34-1.07-3.68-1s-2.64.95-3.89,1.55a12.73,12.73,0,0,1-4.74.91c-1.86.12-3.73.2-5.6.19-3.18,0-6.61-.34-8.79-2.92-.88-1-1.69-1.93-3.13-2.05a7.47,7.47,0,0,0-4.34,1.39.49.49,0,0,0-.22.64c-1.65,1.09-3.9,0-5.85,0a4.67,4.67,0,0,0-2.69.8c-.44.28-.84.63-1.3.87a2.37,2.37,0,0,1-2.08,0c-2.21-.65-2.61,1.91-4.4,2.39a23,23,0,0,0-2.86.57c-.81.34-1.93,2-2.69.74a.71.71,0,0,0-1.28.17c-.81,2-3.55,1.37-4.79.29-1.46-1.27-2.2-3.14-3.17-4.77-.74-1.26-1.83-2.93-3.29-3.47a1.48,1.48,0,0,0-2,1.71,8.77,8.77,0,0,0,2.35,4.4c1.28,1.34,3.33,1.84,4.28,3.49s.42,3.84,1,5.71a3.07,3.07,0,0,0,2,2.18.57.57,0,0,0,.39.8c.68.09,1.35.18,2,.24a6.14,6.14,0,0,1,1.66.21,1.73,1.73,0,0,1,.33.17l-2.43,1c-.93.38-2.29,1.25-3.34.85a13.29,13.29,0,0,1-2.6-1.8l-2.26-1.63c0-.19,0-.38-.06-.58-.09-.58-.74-.57-1.06-.22a19.41,19.41,0,0,1-3.94-3.59c-1.15-1.45-2.92-2.63-3.67-4.35-.67-1.55-.64-3.31-1-4.95a7.3,7.3,0,0,0-.84-2.16c-.38-.62-.62-.69-.33-1.56a4.12,4.12,0,0,0,.27-.69,3.42,3.42,0,0,0-.44-1.81c-.52-1.26,0-1.81,1.11-2.51,1.24-.81,2.49-1.58,3.72-2.39.83-.23,1.68-.42,2.51-.57a.5.5,0,0,0,.37-.65,3.24,3.24,0,0,0,.86-.24,6.75,6.75,0,0,0,1.84-1.19,3,3,0,0,0,.59,1.81,2.19,2.19,0,0,0,3,.51c.45-.27.82-.65,1.24-1a1.9,1.9,0,0,1,1.65-.32,7.74,7.74,0,0,0,3.22.27,2.11,2.11,0,0,0,1.12.22,16.18,16.18,0,0,1,2.16-.43c.52,0,1.11.32,1.1.93,0,.27-.15.37-.37.51a3,3,0,0,0-.83.75c-.35.49.23,1.16.78,1a7.25,7.25,0,0,0,1.52-.71,2.81,2.81,0,0,1,1.45-.57c.6,0,1.2.38,1.81.45s7.41,2.8,10.73,1.92c-1.74.32-5.29-6.43-3.16-7.95.48-.34.22-1.15.12-1.73a2.08,2.08,0,0,0-.29-.8l-.12-.15c.45-1.22,1.18-2.46.47-3.66-.46-.79-1.4-1.11-2-1.8a4,4,0,0,1-.83-2.94,5.46,5.46,0,0,0-.32-3,4.39,4.39,0,0,0-1.72-1.7,29.47,29.47,0,0,0-5.85-2.21c-.71-.24-1,.85-.31,1.11a34.35,34.35,0,0,1,5.42,2.15,2.7,2.7,0,0,1,1.47,1.84c.18,1.05-.18,2.11,0,3.17a4.93,4.93,0,0,0,.86,2.18,8.72,8.72,0,0,0,1.72,1.55,1.11,1.11,0,0,1,.37,1.34.65.65,0,0,0-.2,0h-.26a2.43,2.43,0,0,0-.26-.05,2.57,2.57,0,0,0-.46.05l-.75.07s-1-1.15-1.37-1.72a10.28,10.28,0,0,1-1-1.82,3.36,3.36,0,0,0-.95-1.42,2.11,2.11,0,0,0-.9-.41,3.21,3.21,0,0,1-.92-.19c-.55-.3-.91-.8-1.52-1a9.76,9.76,0,0,0-2-.3c-1.47-.21-1.85-1.42-2.74-2.4l-.05,0a.49.49,0,0,0-.19-.24c-1.1-.75-2.13-1.62-3.29-2.3a14.44,14.44,0,0,0-3.26-1.31c-1.1-.32-2.23-.58-3.33-.93a13,13,0,0,1-1.7-.66c-.52-.26-1-.64-1.53-.85a.44.44,0,0,0-.32,0,23.91,23.91,0,0,0-5.34-3.42c-1.4-.65-3.14-1.78-4.09-.08-.63,1.12-1.59,1.32-2.78,1.54a34.14,34.14,0,0,1-4,.51c-1.58.11-3.62,0-4.28,1.69-1.31.18-2.19-1-3.56-.85a12.35,12.35,0,0,0-3.93,1.11,34,34,0,0,0-3.85,2.29,3.08,3.08,0,0,1-.92.51c-.47.08-.56-.17-.85-.41a3.18,3.18,0,0,0-1.12-.74,4.8,4.8,0,0,0-3.25.48c-1.4.57-2.75,1.26-4.1,1.94-3.11,1.58-6.35,3.12-9.92,2.94a.5.5,0,0,0-.51.68c-2.26.66-4.54,1.49-5.55,3.83s.4,4.71,1.38,6.86c1.09,2.41,2.71,6.34,1.3,8.9-.53,1-1.42,1.66-1.89,2.66a3.63,3.63,0,0,0,0,2.89,24.13,24.13,0,0,0,1.4,2.6c.72,1.43.22,2.32-.21,3.72-.78,2.52,1.41,3.92,2.49,5.9a13.23,13.23,0,0,1,1.23,7.67c-.26,2.58-1.33,5.2-.75,7.82a2.83,2.83,0,0,0,.12.44h0c-.15.38-.29.75-.4,1.13h0a.56.56,0,0,0-.58.8,3.82,3.82,0,0,1,.2.53h0a9.35,9.35,0,0,0-.2,3.63.45.45,0,0,0,.34.37,10.2,10.2,0,0,0,0,1.56,6.37,6.37,0,0,0,2.54,4.65c1.81,1.5,3.88,2.73,5.83,4.06l.16.11a.56.56,0,0,0,.36,1,6.49,6.49,0,0,1,1.41.23h0l4.38,3a27.54,27.54,0,0,0,6,3.31,12.39,12.39,0,0,1,3.09,1.59,8.77,8.77,0,0,0,2.64,1.46,13.35,13.35,0,0,0,3,.37c1.14.07,2.25.29,3.39.41,2.3.23,4.29-.77,6.35-1.66s4.84-1.44,5.78-3.7c.68-1.64,2.74-1.66,4.14-2.58a7.48,7.48,0,0,0,3.52.86.74.74,0,0,0,.38-.1c3.44,2.49,7.3,4.84,11.55,5.14,4.61.33,8.06-2.51,11.94-4.48a20.88,20.88,0,0,1,6.45-1.76,10.14,10.14,0,0,0,5.47-2.15c1.66-1.51,2.46-3.72,3.71-5.53a29.16,29.16,0,0,1,5.08-5.39c1-.87,2-1.73,3.08-2.54a4.81,4.81,0,0,1,2.05-1,14.3,14.3,0,0,0,1.85-.32A4.4,4.4,0,0,0,413,453c.56-.8,2-3.29,3.25-2.09a.67.67,0,0,0,.63.17,7.07,7.07,0,0,0,2.79-1.94,8,8,0,0,0,.83-1.25c.48-.85,1.15-.93,2-1a7.56,7.56,0,0,0,2.64-1.33,7.12,7.12,0,0,1,3.61-.56,2.22,2.22,0,0,0,3.31.89c2.11.51,4.69-.67,6.76.07,1.37.49,2.57,1.36,4,1.59a2.69,2.69,0,0,1,.76.12c.47.26.4.77.2,1.18a4.52,4.52,0,0,1-1.4,1.35,43.79,43.79,0,0,0-7,6c-1.76,2.09-3.15,4.6-5.27,6.37a.52.52,0,0,0,.13.84l-2,1.28a.53.53,0,0,0,.53.91,39.31,39.31,0,0,0,6.67-4.3c2-1.64,3.75-3.53,5.66-5.26a26.72,26.72,0,0,1,3-2.4c.67-.44,1.05-.68,1.82-.43a3.53,3.53,0,0,0,1.4.27c2.38-.17,3.45-2.83,5.72-3.26a.52.52,0,0,0,.4-.3c3.15-1.1,5.78-3.4,8.71-4.95.92-.49,1.86-.95,2.81-1.39a8.26,8.26,0,0,1,3.26-1.17c1.13,0,1.64,1.07,2.59,1.47a2.87,2.87,0,0,0,2,0c.73-.24,1.64-1,2.43-.85,1.82.34-.75,1.88-1.23,2.18a44,44,0,0,1-5.57,3c-1.92.87-3.93,1.49-5.86,2.33a33.47,33.47,0,0,0-6,3.42.54.54,0,0,0,.54.93c1-.52,2-1.08,3.08-1.63h0c3.07-.93,6.09-2,9.12-3,2.51-.84,5.67-1.68,7.41-3.83a8.56,8.56,0,0,0,1.29-3.51,6.38,6.38,0,0,1,3-3.59c2.87-2,5.71-4,8.52-6a.23.23,0,0,0,.07-.07l-.64.16.78-.38a.52.52,0,0,1-.14.22c2.07-.48,4.19-.66,6.29-1a34,34,0,0,0,6.21-1.65q.38-.13.75-.3h0a12.27,12.27,0,0,0,2-.43c2.4-.71,4.69-1.94,7.2-2-.59,1.41-.82,2.91-1.34,4.36-.76,2.08-2.56,3.44-4.08,5A114.8,114.8,0,0,0,498,447.14c-.5.64.3,1.52.92.92a62.27,62.27,0,0,1,4.74-4.15c.36-.28.72-.58,1.1-.82a2.62,2.62,0,0,1,1.94-.24,2.87,2.87,0,0,0,1.84-.32,4.81,4.81,0,0,0,2-3.66,9.58,9.58,0,0,1,2.13-4.82,25.58,25.58,0,0,0,2.6-3.52,18.26,18.26,0,0,1,.76-1.92c.43-.57,1.6,0,2.34-.19a5.43,5.43,0,0,0,3.28-2.88c.2-.35.39-.7.62-1,.47-.71.85-1,1.75-.81s1.5.55,2.32.67a9.25,9.25,0,0,0,1.49.09,7.27,7.27,0,0,1-1.93,2,14.38,14.38,0,0,0-3.09,3.76c-1,1.67-2.15,4.1-4.43,3.86a6.74,6.74,0,0,0-4.46.62.63.63,0,0,0-.08,1c-.45,0-.9.1-1.34.17-.67.1-.48,1.14.16,1.15,1.07,0,2.13-.09,3.2-.17a5.65,5.65,0,0,1,1.73-.11c.53.19.41.46.72.75,1,1,2.2.42,3.34-.18,3-1.55,4.87-4.66,8-6.05.59-.26.45-.89.1-1.64.46-.67-.59-2.13-1.12-3.4a.62.62,0,0,1,.2-.23,1.85,1.85,0,0,0,.83-1.75,8.19,8.19,0,0,0,1.74-.55c1.74-.75,3-2.63,4.88-3,.71-.16.57-1.4-.18-1.31-1.73.23-2.69,1.37-4.06,2.3a7.61,7.61,0,0,1-1.9.93,6.32,6.32,0,0,1,.33-.56,16.28,16.28,0,0,1,2-2.26,29.05,29.05,0,0,1,4.42-3.48c3.23-2.11,6.67-3.94,10-5.94a6.28,6.28,0,0,1,.5.92c.26.59,1.16.16,1-.43a6.75,6.75,0,0,0-1.11-2.58,8.86,8.86,0,0,0-1.59-1.59c2.1-.08,3.79-.16,4-.21C550.15,406.33,550.19,405.47,549.64,405.38Zm-76.28,41.95.22-.13.66-.37A8.36,8.36,0,0,1,473.36,447.33Zm-50-18.58a.52.52,0,0,1,.66-.18l-.8.37Zm-24.67-.35a2.79,2.79,0,0,1,2.21.45,8.75,8.75,0,0,0-2.43-.34A.42.42,0,0,1,398.68,428.4Zm-91.1-1.22c-1-1.62-2.13-3.73-1.66-5.69a15.68,15.68,0,0,1,.86-2.14,14.14,14.14,0,0,0,.75-2.71,15.61,15.61,0,0,0-1.71-10.25c2.58-1.7,8-1.77,8.45-5.37,1.24-.19,2.48-.46,3.71-.71a29.09,29.09,0,0,0,5-1.22c1.45-.56,2.69-1.76,4.18-2.16s3.19.33,4.8-.15a.48.48,0,0,0,.36-.36,83.27,83.27,0,0,1,9.31-2.19,10.47,10.47,0,0,1,5.38.46,14,14,0,0,0,4.82,1c1.8,0,3.61,0,5.42,0a18.81,18.81,0,0,1,5.6.37,16.11,16.11,0,0,1,5.85,3.42.12.12,0,0,0,.05.05l.16.13h0c.76.64,1.5,1.3,2.24,1.94.51.44,1.22-.25.75-.74-.69-.72-1.4-1.44-2.15-2.11a2,2,0,0,1,.78,0,3.23,3.23,0,0,1,1,.68,11.2,11.2,0,0,0,2.37,1.48c1.38.65,2.76,1.26,4.16,1.85h0a61.87,61.87,0,0,1,5.81,4.82,1.76,1.76,0,0,0-.25.91c0,.74.16,1-.66,1.28a6.77,6.77,0,0,1-2,.35c-2.4.06-3.93-2.25-6.35-2.2a10.7,10.7,0,0,0-3.41.86,14.83,14.83,0,0,1-3.95.91c-1.6.12-3.79-.17-4.57,1.6a.57.57,0,0,0,.11.66.46.46,0,0,0-.42.05,11.51,11.51,0,0,1-2.15,1.32,5,5,0,0,1-1.07.2h-.07a.53.53,0,0,0-.62-.05c-.58.31-1.15.63-1.72,1a16.81,16.81,0,0,0-3.42,1.05c-1.61.69-3.56,1.57-4.65,3-.5.66-.5,1.68-1.05,2.28s-2.12.61-3,.59c-2.31-.05-4.62-.23-6.92-.36-1.4-.08-3.26-.5-3.81,1.18-.33,1,.07,2.16.08,3.19a2.93,2.93,0,0,1-.14,1.18c-.25.67-.73.76-1.22,1.17a1.53,1.53,0,0,0-.61,1.38,2.73,2.73,0,0,1-.19,1.71c-.24.47-.57.88-.84,1.32a10.58,10.58,0,0,0-1.56,5.47.69.69,0,0,0,1.28.35,18.07,18.07,0,0,1,3-3.87,1.72,1.72,0,0,1,.34.72,2.58,2.58,0,0,1-.11,1.43,9.77,9.77,0,0,1-2.38,3,11.09,11.09,0,0,1-2.58,2.58,17.91,17.91,0,0,0-3.08,1.58,2.77,2.77,0,0,1-1.56.78c-.48.06-1,0-1.45,0a3.19,3.19,0,0,0-2.49,1,3.69,3.69,0,0,0-.65,2.44,5,5,0,0,1-.16,2.14,1,1,0,0,0-.79-.14,12.8,12.8,0,0,1-.47-3.66,12.67,12.67,0,0,0-.65-4.35.64.64,0,0,0,0-.45c-.46-1,1-2,1.54-2.77a5.86,5.86,0,0,0,.86-2.21,13.53,13.53,0,0,0-.36-5.18,9.69,9.69,0,0,1-.26-1.77,4.07,4.07,0,0,1,.1-1.1c0-.45.12-.6.44-.45.43-.15.77,0,1.12-.47a2.26,2.26,0,0,0,.3-1.57c-.07-.8-.23-1.61-.37-2.42.59.19,1.16.69,1.78.05a1.34,1.34,0,0,0,.28-1.2c-.17-1-.53-1.59-.06-2.62.67-1.47,2.23-2.6,3.41-3.67a37.42,37.42,0,0,1,4.22-3.33.52.52,0,0,0,.17-.73l.06,0c.47-.35.22-1.19-.42-1a17.22,17.22,0,0,0-2.85,1.27,19,19,0,0,0-2.89,1.61,5.81,5.81,0,0,0-1.51,1.69c-.33.56-.48,1.08-1.14,1.27s-1-.18-1.51-.15a1.15,1.15,0,0,0-1.06.73c-.33.88.54,1.48.55,2.28l-.18.37c0,.36-.15.46-.37.3-.17,0-.44-.16-.64-.16a1.36,1.36,0,0,0-.69.14,1.7,1.7,0,0,0-.85,1.41,3.1,3.1,0,0,0,.72,1.89c.4.63.66,1.05-.35,1.42a4.78,4.78,0,0,0-.89.21,1.25,1.25,0,0,0-.7,1.13c0,.41.2.55.37.86a5.56,5.56,0,0,1,.61,2.32l.36,3.3a8,8,0,0,1,.15,3.15c-.31.85-1.46.8-1.94,1.57a2.66,2.66,0,0,0-.26,1.84,20.53,20.53,0,0,0,1.24,3.27,11.59,11.59,0,0,1,.38,4,12.8,12.8,0,0,0,.62,4,4,4,0,0,0-.31.41c-.83,1.26-2.53,1.91-3,3.44a3,3,0,0,0-.12.92,10.21,10.21,0,0,1-4.13-2,4,4,0,0,1-1.1-1.71,36.83,36.83,0,0,0,1.74-4.42c1-3.68.48-7.13-.73-10.66a2.93,2.93,0,0,1-.18-1.91c.13-.4.39-.73.52-1.14a2.74,2.74,0,0,0-.16-1.93A33.22,33.22,0,0,0,307.58,427.18ZM345.13,470a16.42,16.42,0,0,1-6.37,1.68c-2.14.13-4.2-.44-6.33-.46s-4.25.57-6.4.56c-2.89,0-5.17-2-7.76-2.82h0c-2.38-1.59-4.75-3.2-7.07-4.86a7.52,7.52,0,0,1-2.44-2.45,6,6,0,0,1-.43-3.24c.1-1.53.29-3-.34-4.3.07-.25.14-.49.23-.73,1.35,2,3.88,2.6,6.28,3.42a6.17,6.17,0,0,0,1.24,1.76,18.26,18.26,0,0,0,4.44,3.49,33.4,33.4,0,0,0,5.57,1.94c2.06.64,4,1.76,6.09,2.21s4.47.66,6.69,1.13a24.54,24.54,0,0,0,6.22.58c1.77-.08,3.47-.18,5.18-.1C348.15,468.07,346.69,469.18,345.13,470ZM342,464.05c-.94-.1-1.09-.66-1.68-1.28a5.19,5.19,0,0,0-1.41-1,5.47,5.47,0,0,0-3.64-.51c-.77.16-1.54.73-2.36.54a8.38,8.38,0,0,1-2.22-1.2c-1.58-1-2.25-2.36-3.24-3.86a10,10,0,0,0-3.18-2.67c-1.11-.78-1.26-2.24-1.13-3.57.05,0,2.1-2.18,3.4-2.6a9.85,9.85,0,0,0,3-1.64,9.32,9.32,0,0,0,2.23-2.61c.47-.82.82-2,1.65-2.52a20.53,20.53,0,0,1,.43,2.07.46.46,0,0,0,.57.36.61.61,0,0,0-.31.79c.5,1.16,1.77,1.95,2.06,3.2a13.26,13.26,0,0,0,.4,2.25,2.43,2.43,0,0,1,.28,1.17c0,.37-.09.73-.1,1.1a5.62,5.62,0,0,0,4,5.36.5.5,0,0,0,.16.34,18.62,18.62,0,0,1,1.45,1.84,13.65,13.65,0,0,1,.49,1.29.64.64,0,0,0,1.22,0,.85.85,0,0,0,0-.39.11.11,0,0,0,0,0,.63.63,0,0,0-.12-.33c-.05-.15-.11-.31-.17-.46a.52.52,0,0,0,.39-.37,4.69,4.69,0,0,0,.32-1.29,2.31,2.31,0,0,0-.36-1.31,9.15,9.15,0,0,0-.85-.91,3.31,3.31,0,0,1-.18-.29c0-.05,0-.12,0-.12h.11l.15,0a1.67,1.67,0,0,1,.61.67,4,4,0,0,0,1.9,1.71,2.2,2.2,0,0,0,2.57-.8.49.49,0,0,0,.33.26l.31.14s.23.3.27.38l.05.21,0,.06s0,.74.05,1a3.94,3.94,0,0,0,.22,1.49,1.85,1.85,0,0,0,1.19,1,.46.46,0,0,0,.52-.16.56.56,0,0,0,.47.17.55.55,0,0,0,.47-.53c0-.07,0-.29,0-.29,0-.17,0-.32.06-.49a2.93,2.93,0,0,1,.13-.51.64.64,0,0,1,.08-.14,2.37,2.37,0,0,1,.23.23,2,2,0,0,1,.12.21c0,.14.08.28.11.43s.39.86.59.89a.56.56,0,0,0,.55-.27h0l0,0h0a1.05,1.05,0,0,0,.15-.3,1.6,1.6,0,0,0,.05-.21,5,5,0,0,0,.29-.73l.33-.38s.77-.41.84-.43a5.57,5.57,0,0,1,.66-.1l.29.05.2.15.15.61c0,.06-.21,1.13-.26,1.28-.24,0-1.37.41-1.71.53a8.83,8.83,0,0,0-1.86.75,2,2,0,0,0-1,1.47A41.92,41.92,0,0,1,342,464.05Zm16.45,6.57h0c-2.22-.13-3.93-1.88-5.95-2.6l.32.05c2,.37,4.58.63,5.75,2.49A.27.27,0,0,0,358.4,470.62Zm2-17.22a6.25,6.25,0,0,0-1.14-2.49.71.71,0,0,0-1.31.35c-.05,1.3-1.29,3-2.76,2.75-1.16-.17-1-1.77-1.85-2.35s-1.84-.06-2.7.25a6.41,6.41,0,0,1-4.32-.06c-2.86-1-4.84-3.41-6.6-5.74-1.47-1.94-3.27-4.2-3.45-6.7.56.66,1.14,1.32,1.71,2a.71.71,0,0,0,1.21-.49,9.86,9.86,0,0,1,.11-3.34,25.78,25.78,0,0,0,.67-2.86,20.28,20.28,0,0,0-.5-4.71l.33.19a.71.71,0,0,0,1.06-.61,3.2,3.2,0,0,1,.33-1.93c.39-.51.87-.42,1.39-.38a2.23,2.23,0,0,0,1.65-.5c.21-.15,1.55-1.91,1.89-1.6s-.77,2.42-.9,2.74a.71.71,0,0,0,.18.69,13.61,13.61,0,0,0,3.51,3,14.18,14.18,0,0,1,3.45,2.8,2.19,2.19,0,0,0,.72,2.48c1.3,1.1,3.92.28,4.73,1.89a.61.61,0,0,0,1,.2c.18.17.37.33.56.49.87.7,1.79,1.33,2.71,1.95a4.3,4.3,0,0,1-1.42,2.77.62.62,0,0,0,.44,1c.53-.06,1.72-.3,1.48.48-.12.41-.6.85-.78,1.26a5.88,5.88,0,0,0-.52,3.09,11.61,11.61,0,0,1,.26,1.74,2,2,0,0,1-.91,1.45ZM393.79,469c-1.86,1.33-4.35,1.38-6.52,1.75-4.51.77-7.76,4-12,5.37-5.54,1.8-10.22-1.64-14.67-4.5a9.33,9.33,0,0,1,2.16-1.28,7.42,7.42,0,0,1,4.47-.29l2,.43.41.14c1,.32,2.73.92,3.78.37a1.31,1.31,0,0,0,.31-.23,6.21,6.21,0,0,0,2.05-.72c.52-.3.17-1.22-.42-1a6.42,6.42,0,0,1-1.09.32c.08-.43.19-.64,1.14-.8a7.17,7.17,0,0,1,1.39,0l5.16.14a.87.87,0,0,1-.61.66.66.66,0,0,0,.33,1.22c2.06-.19,3.79-1.27,5.77-1.73,1.29-.3,2.33.11,3.59.26a7.92,7.92,0,0,0,3.09-.37A3.92,3.92,0,0,1,393.79,469Zm23.31-23c-.47.51-2,.31-2.66.58a12.36,12.36,0,0,0-3.37,2.61,4.14,4.14,0,0,1-2,1.12,15.62,15.62,0,0,0-2.88.41,11.4,11.4,0,0,0-4.42,3.56c-1.38,1.6-2.61,3.34-3.83,5.07-.59.85-1.17,1.7-1.78,2.53-.32.44-.63.89-1,1.31a1.58,1.58,0,0,1-1.81.79,5.39,5.39,0,0,0-2.07-.25,8.49,8.49,0,0,0-2.31.77,6.39,6.39,0,0,1-2.93.84c-1.1-.08-2-.87-3.09-1a7.45,7.45,0,0,0-3.25.6,8.62,8.62,0,0,1-4.67.15.5.5,0,0,0-.22-.64c-.71-.36-1.49-.55-2.23-.87a15.55,15.55,0,0,1-2.13-1.14,23.69,23.69,0,0,0-2.87-1.94,27.58,27.58,0,0,1,4.75-5,10.15,10.15,0,0,0,2.36-2.31c.45-.77.26-2.09.74-2.85l.15.11a.64.64,0,0,0,.86-.23,12.69,12.69,0,0,1,4.57-4.46,32.5,32.5,0,0,1,3.73-1.61,16,16,0,0,1,2.79.54.53.53,0,0,0,.41-1,6.24,6.24,0,0,0-1.15-.52c1.68-.93,3.21-2.17,5-3a7.19,7.19,0,0,1,3.35-.73c1.06.07,2.06.52,3.13.55a3.42,3.42,0,0,0,2.07-.55c.82-.58.9-1.84,2.17-1.52a16.87,16.87,0,0,1,3.05,1.49c.95.46,1.92.89,2.89,1.31a62,62,0,0,0,9.44,3.28C417.56,444.62,417.51,445.58,417.1,446Zm-1.68-9.53a7.84,7.84,0,0,1-5.57,1.18,24.09,24.09,0,0,1-4.51-1.83,9.28,9.28,0,0,0-4.06-1c-1.67.06-3.18.79-4.77,1.17s-3.32.27-4.9,1.07c-.69.35-1.37.74-2,1.15a9.07,9.07,0,0,0,.44-1.06c.2-.57-.67-.93-1-.41a13.79,13.79,0,0,1-2.2,3,.5.5,0,0,0-.47.17,7.51,7.51,0,0,1-2,1.72,3.35,3.35,0,0,1-2.82,0c-.55-.2-1.07-.47-1.62-.67.26-.26.51-.52.74-.72a5.89,5.89,0,0,0,1.7-1.78c.27-.64,0-1.19.06-1.85,0-.39.19-1.05.6-1.25s1.06.21,1.55.35c1.47.42,2.34-.68,3.29-1.59a6.67,6.67,0,0,1,2.92-1.3l2.79-.84a10.13,10.13,0,0,1,1.49-.44,2.5,2.5,0,0,1,1.44.36,4.8,4.8,0,0,0,2.34.35c1.18-.12,2.67-1,2.56-2.34a1.53,1.53,0,0,0-.55-1.11,14.54,14.54,0,0,1,3,1.2c2,1.07,3.66,2.35,6.09,2.17a65,65,0,0,0,7.32-1.23c1.68-.32,3.4-.6,5.08-1A25.6,25.6,0,0,1,415.42,436.49Zm28.76,8.6a.19.19,0,0,1-.07.06l-.09.05h0l-.14.05-.1.05h-.07a.56.56,0,0,0-.2.11.6.6,0,0,0-.22.32.66.66,0,0,0,.11.53l-.4-.08a18,18,0,0,1-3.35-1.38,7.75,7.75,0,0,0-4-.38c-.51.06-1,.12-1.46.15a3.64,3.64,0,0,0,1.92-1.78,2.12,2.12,0,0,0,.09-1.17c-.1-.41-.58-.72,0-.83,1.12-.2,1.22.73,1.63,1.49a3,3,0,0,0,1.77,1.45,3,3,0,0,0,1.26.09c.42-.07.78-.29,1.19-.38.78-.17,1.19,1.05,1.79,1.44a1.57,1.57,0,0,0,.37.18Zm47.44-15.55c-1,.19-2,.34-3,.55a13.06,13.06,0,0,0-5,2.1c-1.44,1-2.72,2.25-4.25,3.12-1,.59-2,1-3,.16a4,4,0,0,0-1.76-1c-1.59-.35-3.05.56-4.18,1.57a25,25,0,0,1-5,3.59c-3.84,2-7.89,3.69-11.83,5.5a5.87,5.87,0,0,1-.14-.65,2.71,2.71,0,0,0-.43-1,3,3,0,0,0-1.91-1.12,5.83,5.83,0,0,0-2.74.36.66.66,0,0,0-.36.28c-1.39-.18-2.51-2.28-3.58-2.93a3,3,0,0,0-2.13-.43,4.26,4.26,0,0,0-1,.42c-.51.27-.82.1-1.27-.21-1.19-.84-2.13-2-3.7-2a4.71,4.71,0,0,0-2.08.52c-.42.19-.81.42-1.21.64a7,7,0,0,1-1,.54.53.53,0,0,0-.71-.15l-.11.07a.62.62,0,0,0-.31.54.91.91,0,0,0,0,.17c-.72,0-1.43.08-2.15.07a3.83,3.83,0,0,1-2.07-.47,9.75,9.75,0,0,0-1.45-.79,7.19,7.19,0,0,0-3.46-.29,42.07,42.07,0,0,1,2.74-4.84c.95-1.2,2.68-3.46,4.34-3.32.78.07,1.53.35,2.32.42a9.55,9.55,0,0,0,2.56-.11c1.92-.32,3.66-1.42,5.65-1.22a11,11,0,0,1,2.82.8,6.92,6.92,0,0,0,2.34.84,2.09,2.09,0,0,0,1.46-.75,19.93,19.93,0,0,1,2.39-1.9,15.25,15.25,0,0,1,2.27-1.26,5.45,5.45,0,0,1,3.19-.32c1.6.16,2.73-.77,3.82-1.82a8.09,8.09,0,0,1,5-2.32,3.32,3.32,0,0,0,1.7,1.91,5.2,5.2,0,0,0,1.87.38,8.87,8.87,0,0,1,2.69.68c1.64.64,3.09.32,4.77.07a16.65,16.65,0,0,1,5.8.35c3.16.65,6.43,1.58,9.65.78.82-.2,2.59-1.11,2.64.3,0,.62-.21,1,.21,1.52a1.7,1.7,0,0,0,.51.46Zm-2.93-6.83a12.42,12.42,0,0,0-1.62.74,2.77,2.77,0,0,1-2.43-.08,11.11,11.11,0,0,0-3.36-1,20.41,20.41,0,0,0-3.9.26,13.93,13.93,0,0,1-1.94.08,4.92,4.92,0,0,1-1.15-.17l-.45-.16c-.06-.09-.12-.16-.16-.23a.47.47,0,0,0,.38-.1c1.35-1,2.58-2.18,3.84-3.28l1-.89c.61-.52.34-.38.77-.21s.61.43,1.17.35c1.07-.15,1.74-1.21,2.27-2.06a7.3,7.3,0,0,1,1.22-1.78c.59-.48,1.15-.11,1.79-.47,1.25-.72.68-2.14,1-3.25s1.62-1.91,2.44-2.75a17.12,17.12,0,0,0,1.81-2.87c.72-1.08,1.73-.4,2.59.06.61.32,1.23.61,1.85.89a.41.41,0,0,0,.17.27c1.26,1,2.8.65,4.28.79,1,.09,1.47.65,2.26,1.2a3.91,3.91,0,0,0,2.33.61,26.88,26.88,0,0,1,2.69-.11,6,6,0,0,1,1.39.29,10.73,10.73,0,0,0-2.83,0,9.05,9.05,0,0,0-5,3.16,23.22,23.22,0,0,0-1.89,2.62c-.28.45-.53.94-.84,1.37a2.48,2.48,0,0,1-.28.36c-.1.15-.14.1-.14-.16a2.17,2.17,0,0,1-.15-.68,10.7,10.7,0,0,0-1.75-4.38h0c-.16-.34-.33-.66-.52-1a.55.55,0,0,0-1,.37.54.54,0,0,0,.05.71,5.88,5.88,0,0,1,.59.75h0a8.48,8.48,0,0,1,.11,7,6.2,6.2,0,0,1-2.53,2.69C491.48,422.32,490,422.3,488.69,422.71Zm5,8.49,2.7-1.21a3.74,3.74,0,0,1,2.73-.23l.74.2A59.09,59.09,0,0,1,493.69,431.2Zm17.93-14.63c-.5.45-1.7,1.62-2.43,1.49-.38-.06-.65-.32-1.07-.32a2.1,2.1,0,0,0-1.09.35.66.66,0,0,0-.23.87c1.05,2.15-3.58,3.48-4.95,3.29-.6-.08-1.18-.16-1.75-.2-.73-1.89,1.51-3.24,2.4-4.7.24-.39.38-1.19.82-1.38s1,0,1.41,0a2.39,2.39,0,0,0,1.87-1.05c.43-.58.68-1.49,1.31-1.88.86-.54,2.2.2,3.1.35a4.94,4.94,0,0,0,3.46-.78A11.36,11.36,0,0,1,511.62,416.57Zm8.16-11.86c-.58.56-1.29,1-1.59,1.77s0,1.24.37,2q.35.19.12.42h-.9l-1.81,0c-.76,0-1.58,0-2.37-.07a.56.56,0,0,0-.8-.4,3.47,3.47,0,0,1-.5.2c-1-.27-1.53-1.12-2.22-1.84-1.25-1.31-2.8-1.48-4.53-1.56a12.34,12.34,0,0,1-5.2-1.42,59.74,59.74,0,0,1,11.81-.07,18.71,18.71,0,0,0,6.42-.19,3.32,3.32,0,0,1,1.27-.23C520.83,403.47,520.26,404.24,519.78,404.71Z"/><path class="cls-1" d="M339.17,406.34c.46-1,1.39-.9,2.15-.36a4.57,4.57,0,0,0,2.86,1.08,5,5,0,0,0,1.53-.28,3.14,3.14,0,0,1,1.64-.35,6.38,6.38,0,0,0,1.56.27,3.16,3.16,0,0,0,1.51-.56c.6-.37.08-1.18-.54-.92-1.12.48-2.25-.35-3.39-.12s-2.3,1-3.55.34c-.91-.48-1.6-1.26-2.71-1.18a2.46,2.46,0,0,0-2.12,1.63C337.88,406.5,338.88,406.93,339.17,406.34Z"/><path class="cls-1" d="M354.87,405c.5-.4.71-1.21,1.22-1.53s.68.61.89,1a.22.22,0,0,0,0,.08l-.09,0a.54.54,0,0,0-.15,1.06,1.89,1.89,0,0,0,1.36.05,2.9,2.9,0,0,0,1.57.43c.69,0,1.31-.45,2-.45s1.18.69,1.73,1a6.06,6.06,0,0,0,3.5.37,9.68,9.68,0,0,1,1.7-.07,10.36,10.36,0,0,1,1.82.65A1.3,1.3,0,0,0,372.1,406a3,3,0,0,0-2.47-1.91c-1.32-.24-2.7.16-4-.16a21,21,0,0,1-2-1,4.25,4.25,0,0,0-2.12-.2,7.22,7.22,0,0,0-2.1.7c-.35.17-.7.42-1.07.65-.5-.71-.55-1.76-1.54-2-1.53-.43-2,1.27-2.76,2.16A.6.6,0,0,0,354.87,405Z"/><path class="cls-1" d="M387.58,408.74a.39.39,0,0,1-.28-.08s0,0,0-.06,0,0,0-.05l0,0,.24.14Z"/><path class="cls-1" d="M462.57,350c-.13.74-.4,1.78-1.37,1.59a.64.64,0,0,1-.47-.62,3.74,3.74,0,0,0-.38-1.84c-.33-.61-.82-1.09-1.09-1.73a2.18,2.18,0,0,1,.26-2.25,1.86,1.86,0,0,1,.69-.51.42.42,0,0,1,.23-.31c.81-.44,1.55.14,1.82.92a6.14,6.14,0,0,1,.21,1.12c.06.4.12.8.16,1.19A9.49,9.49,0,0,1,462.57,350Z"/><path class="cls-1" d="M477.32,387.23a12,12,0,0,0-2.43-3.06.53.53,0,0,1-.44-.24l-.33-.47a31.8,31.8,0,0,1-3-2.83,14.76,14.76,0,0,1-1.33-1.71,3.29,3.29,0,0,0-.8-1c-.31-.23-.67-.38-1-.59a2.19,2.19,0,0,1-1.14-1.76,1.41,1.41,0,0,1,1.1-1.42.63.63,0,0,1,.73.4,2.32,2.32,0,0,1,1.43.7,14.76,14.76,0,0,1,1.68,2.45c1,1.52,2,3,2.88,4.58a12.88,12.88,0,0,1,3.52,4.43C478.5,387.3,477.64,387.85,477.32,387.23Z"/></svg>