<svg xmlns="http://www.w3.org/2000/svg" viewBox="0 0 960 542.98"><defs><style>.cls-1{fill:#9d4edd;}.cls-2{fill:#7b2cbf;}.cls-3{fill:#d984fa;}</style></defs><g id="Layer_2" data-name="Layer 2"><path class="cls-1" d="M539,323.13s-19,1.82-25.1,4c-12.32,4.32-15.86,6.77-15.86,6.77s-23.94,3.13-28.9-3.31-22.62-6.44-22.62-6.44-2.48-8.25-20.48-9.9-22.46-10.74-22.46-10.74-4.62-11.72-6.27-11.72-5.12-8.1-5.12-8.1l-2.64-7.92-5.12-15.36V249l-4.63-23.12-.82-16-4.79-10.57-1.16-15-3.8-7.43-1-14.86s-5.78-4.63-5.28,0a34.53,34.53,0,0,1-.83,10.07l-4,2.31a50.08,50.08,0,0,0,1.16,5.12c-4.13,10.41-12.06,11.4-12.06,11.4s-19.81-.5-20.31-.5S320,195,320,195a15.06,15.06,0,0,0-12.55-1.49c-7.1,2.31-13.87-3-13.87-3l-3.47-6.77-7.26-4.13-1.49-10.9-2.64-14.86-7.6-4.13a110.16,110.16,0,0,0,.5-12.22c0-8.26,4.79-11.73,4.79-11.73l3-7.92-2.31-23.78,4.29-10.74v-13l-5.94-10.9V44.71l-1.82-2.48V37.11l-3.14-4.78a49.26,49.26,0,0,1-1.15-7.77c-1.71-3-5.18-3.57-8-3.4-2.49.15-3.83,1.9-5.74,4l-6.1,13.14-7.93,8.09,1,7.1-3,6.15a11.8,11.8,0,0,0-2.68,2.46c-.9,1.54-1.23,8-4.41,12.28-1.19.31-16.94,40.43-19.67,36.42-3.18-4.68-4.71-.1-4.72.48l-4.24,7.31-1.44,6.9v5.62L195,151.55l-2,12.39-11.56,34-6.79-2.72L166.52,199l-17,41.2-6.6,7.1s-5.45,12.39-6.61,14.7-5.09,13.34-5.09,13.34l.63,4.33-9.46,18-.88,16.15c-1.67.14-2.77-1.88-3.77-4l-3.06-.34-2.89,10.32-4.21.82L96.8,342.37l-5.86-2.56-11.89,17-9,26.3H0V545.61L961.1,543V309.36S927.61,282.31,908,271.49c-13.73-7.57-11.16,1.27-26.09-3.2-18.71-5.58-25.44,17.33-45,3.22-18.63-13.42-16-54.21-37-66.08-8.17-4.63-19-43.92-27.3-47.3a163.81,163.81,0,0,0-17.18-6c-9.56-2.73-10.88-15.92-20.47-16.08-7.67-.12-19.56-4.45-22.39,2-13.09,29.71,21.85,125.38-6.68,160.51C665.37,348.43,544.44,321.83,539,323.13ZM215.51,246.78l3.52-5.5.22-7.05,3.52-11a34.5,34.5,0,0,0,13.43-12.55h6.17v4.85l16.95,19.37s4.19,6.61,10.35,5.73,7.05,6.82,7.05,6.82,9.69,8.59,13,6.17a26,26,0,0,1,2.2,3.52l10.35,6.39s8.37-.31,9,9.42,12.55,5.33,12.55,5.33,4.62-5.94,4.18-8.15,12.11,7.93,12.11,7.93,3.52,6.17-11.23,12.55-14.31,5.06-14.31,5.06l-26.24-1.1-15.6-4.84-10.56.22-5.07-2.2L251.18,282l-2.87-1.76-7.26-3.74-4.85-4.4s-5.06,2.86-3.3,5.72-.37,4-.37,4-5.13,2.21-5.35,1.1a28.35,28.35,0,0,1,0-4.4l-5.07-6.61v-1.76l-6.6-10.35Z"/></g><g id="Layer_13" data-name="Layer 13"><path class="cls-2" d="M859.1,273.31c-9.29,5.44-25.13,3.18-31.62-13.45-11.38-29.15-15.42-50.05-26.91-54a28.94,28.94,0,0,1-4.94-6c-.12-.25-.24-.5-.38-.77h0c-4.57-9.31-16.52-33.58-16.52-33.58s-3.36-6.82-5.19-6.8c0,0-6.08-1-5.92,5.48s-3.3,7.1-3.3,7.1v27.8l2.81-22V303.85l1.8,8.09h2.16l.66-112.89s5.12-10.46,5.45-15.42,3,6.44,3,6.44l10.74,12.55,7.26,13.71v73l2.15-10.73-1.07,32.35,5.2-4.44,1-14,1.32,3.63,2,.33V244.07l-1.65.66-2.31,21s-.12-33.15-.85-43.94l7.12,3.92,4.63,10.57v64.9C815.58,296.12,864.27,270.28,859.1,273.31Z"/><polygon class="cls-2" points="184.42 202.9 189.37 204.77 220.34 130.79 213.15 128.15 184.42 202.9"/><path class="cls-2" d="M220.34,227.56s-1.49,14.94-1.49,15.19-3,6.36-3,6.36v9.83l10.49,20.64V283s6.52.66,6.69-2.31a33.22,33.22,0,0,0,0-5.37c-.08,0,2.72-3.55,2.72-3.55l5.95,5.29s5,1.9,5,2.15,11.72,10.23,11.72,10.23l10.9,1.57s-.25,2.64-7,2.15c4.63,5.94,15.28,21.3,15.28,21.3l.82,6.69s-4.37-1.4-5.78-4c-1.48.66-1.24,1.07-1.24,1.07l-3.3-5.53-2.23.33-3.88-7.6-2.16-.49-2.55-8.26L245.6,285.94l-3.63.16s-4.13-4.29-6.77-3.3-1.16,1.57-1.16,1.57l-3.47-.09-3,.42,4.54,4.79s-4.54,2.89-9.49-6.53a68.75,68.75,0,0,1-6.44-17l-3.67-1.11,1-17.19,4.65-14.72Z"/><path class="cls-2" d="M145.39,297.84c.66-2.19,15.34-58.34,24-72.87l-7.5,1.38,12.22-23.45,6.6,3S156.27,269.37,145.39,297.84Z"/><path class="cls-3" d="M243.45,52.6l-2.06-6.2,7.93-8.09c.88-1.56,3.31-7.67,3.55-7.51,0,0,3.33-10.61,8.45-9.62,0,4,.13,6.23.13,6.23s1.82-2.06,3.88.5l-.49,22-1,.25v4l-3,7.68h-2.64L258,54.58l-2.65-.08L253.94,51l-4.21,4.21s-3.14.66-3-.25l.41-2.31Z"/><path class="cls-3" d="M239.41,59.45,243,65h4.38v6.19l2.31,3.89h2.81l2.8-4.79h4.21v7.26l-2.8,3.14L261,85.21s6,33-10.49,53.26c3.14,19.4-3.71,18.16-3.71,18.16s7.43,24.53-23.21,57.8h-2.8s-4.71,18.08-4.46,18.08,1.9.42,1.9.42-5.7,17.25-4.71,27.9-4.38.5-4.38.5v-2.15l-8.25.58v2.15l-2.31-.08s-.67-7.93,1.07-14c-2.56,4-5.12,13.86-3,17.83S191,290.31,191,290.31h-2s-2.56,9-1.49,6.44,6.44-7.18,6.44-7.18l3.06-.91v3.14s2.39,12.05-5.62,26.34c-4.62,13-5.61,14.45-5.61,14.45h-2.31v-2.48l-4.21,8.83-1.9-.41-6.28,16.76s-3.05,1-3.05,0-.42-10.73-.42-10.73l9.83-41.45,1.4-.08,4.05-15.86,3.22.25,7.35-24.85,1.65-16.6s13.46-35.25,17-40.79,10.4-20.89,13.38-54.24l-2,4.45-3-.33s-.66-5.69-.66-4.95-4.13,25.1-8.17,29.06a35.45,35.45,0,0,1-3.64,0l-.24,3.8-2.07-.08s-.49,9.17-3.88,12.72a23.64,23.64,0,0,0-2.89.08l.5,10.9L194.82,214l-.17,6.85-20.14,55.74-5.37-.67.25-5.36-2.07.33v7.76l-12.46,37.16-3.39-.17-3.63,13.46-2.48-6.69s1.74-18.74,1.74-19,1.89-16.1,1.89-16.1,30.22-79,30.55-79.18a39.11,39.11,0,0,1,4.38-.09l.33,4.3,3.8-7s23.61-59.2,25.68-61.52S217,130.54,217,130.54s5.7-16.1,5.37-17.92c-.43-.49-6.45,1.24-6.61,0l-.17-4.62s3.72-12.14,5.62-14.61,8.42-18.67,10.65-19,3.55-9.82,3.55-9.82A9.46,9.46,0,0,1,239.41,59.45Z"/><path class="cls-3" d="M203.7,118.4l5.4-9.33a2,2,0,0,1,3.06,1.08c.91,2.39.66,7.26.66,7.26h1.73v10.9h.91v5.86s-7.51,17.51-7.92,17.51S189.78,198,189.78,198h-2s.25,4.05-1.81,4.21-5,.91-4.13-4.38S188.05,176,188.05,176s4.87-13.46,5-13.87.57-9.34.74-9.58,7.6-20.15,7.6-20.15Z"/><path class="cls-3" d="M166.5,198.83c.66,0,7.93-4.3,8-2.89s0,7.34,0,7.34L163.11,226s3.22-4.38,4-4.05,4.46.17,4.46.17l.08,2.39-12.47,26.26L147.43,288l-4.79,6.11h-5.21s-2.39,6.36-2.8,6.61a34.08,34.08,0,0,1-5,0l2.65,1.4-1.08,22.38-2,.33V327h-1.57l-.41,3.47s5.86,2.39,5.7,2.81.41,8.75.41,8.75l3.71,2.39s-.23,19.39-.41,20.23c-3.48,16.85-41.85,17-38.39-3.13.28-1.65-.83-16-.83-16l-4.62.74a47.21,47.21,0,0,1-9.33,14.29c-7.36,12.71-13.31,12.11-4-4.18.56-1,10.33-16.55,10.83-16.63s4.21-1.08,4.71-.66,2.5,2.31,2.5,2.07,10.18-20.45,10.18-20.45l3.91-1.19c-.2-.06,2.9-8.36,3.22-9.91,2.32-.66,3.39.41,3.39.41s2.89,3.88,3.22,3.55.74-15.6.74-15.6,9.5-16.93,9.33-18.17-.41-3.88-.41-4.29,11.15-27.33,11.89-28.07,4.62-5,4.62-5Z"/><path class="cls-2" d="M266.24,21.8l1.19,11.67L271,42.06s-.88,14.53,0,14.86.88,5.94.88,5.94h4.62s2.2,12.77-1.65,14.86a33.87,33.87,0,0,0-3.85,0l-2.75,6.61s.66,35.23.11,35.67-3.53-.55-4.08,1.43-7.92,26-2.2,31v3.63l5.29.55c6.71,1.21,8.36,12.33,8.36,12.33l.44,8.15s-9.13,6.27-5.39,11c5.39-5.29,8.14-3.75,8.14-3.75l1.11,8.15h1.43v4.07h2.09v9s4.07.55,4.29-1.21,0,4.51,0,4.51h2.31s-1.32,6.39,4,1.66,6.05-7.49,6.6-7.49.77,2.42.77,2.42l3-2.31,1.43,3.85,7-6.49v3.3s3.53-.33,3.75-1.54.88,3.52.88,3.52,4.18-1,3.52-3c2.86,2.64,4.18,2.75,5.5-1s1.22,3.19,1.22,3.19,3.74.66,3.74-1.54c2.71,2.64,3.63.44,3.63.44s5.29,1.21,4.3-2.2a10.93,10.93,0,0,1,4.4,0v1.87a11.8,11.8,0,0,0,6.82-3.19c1.22,2.86,3.53.66,3.53.66l1.1,2.64L345,215.89l.11,7.27h2.31V225h3.41v5.83h1.33V244h3.08v7.27s2.86-.88,2.86,0v7.6h2.31v10.34h1.43l-.55,12h2.32s-2,6.17-1.44,5,5.84-7.6,5.84-7.6l1.87.22v8h2.64l2.09,16.07h5.07c-.77,0,1.54-20.8-.44-22.35s-.44-5.94-.44-5.94,2.31,3.85,2.31,5.94v7.38a17.26,17.26,0,0,1,1.76-.33c.33,0,1.21,2.86,1.21,2.86h2.42v2l2.76-.11s-1.54,16.63,4.62,16.52,4.62-.44,4.62-.44l.18-2.2,1.92.55v4.07l2,4.18h2.2l3.3,6.5s5.62,1.54,5.73.66a31.7,31.7,0,0,0,0-3.3l6.71,9.79h4.63s.33-12.77,0-12.88a23.79,23.79,0,0,1-2.34-2.06s-13.13-1.07-18.69-9.83a52.25,52.25,0,0,1-2.47-5.09s-2.18-6.88-4.65-7.12c-1.76-.55-5.78-11.09-5.78-11.09s-2.33-7-2.73-8.84c.55-1.1-4-11.33-4-11.33s-.08-11.13-.08-11.9-1.18-5.79-4.73-23.67c-.17-3.29-.64-15-.64-15S376,203,374.29,199.28c.11-2.86-1.16-15-1.16-15l-3.8-7.43-1-14.86c-3.24-2.63-6-3-5.24.41l-.78,8.82-4.05,3.15c.48,2.38,1.34,5.09.2,6.1,0,0-8.78,10-11.1,10.42l-20.31-.5a73.06,73.06,0,0,0-6.94,4.63c-1.14-.65-5.77-4-15.7-1-10.21-1.69-10.2-3.44-10.72-3.45,0,0-2.16-4.31-3.49-6.9-1.32-.33-7.24-4-7.24-4l-1.12-11.19-3-14.57-7.89-4.7c1,.33.19-13.55,5.58-23.38,1.48-2.69,1.17-5.63,3-7.92-.35-8-1.57-16.16-1.57-16.16l-.74-7.62c.2-1.15,4.29-10.74,4.29-10.74v-13s-4.92-9.48-5.58-10.86c-.88-.44-.22-14.53-.22-14.53-1-1.36-2-2.69-2-2.69V37.11a38.28,38.28,0,0,1-3.14-4.78c-.4-1-1.09-7.29-1.15-7.77C269.35,23.92,266.68,21.72,266.24,21.8Z"/><path class="cls-2" d="M219.65,169l-67.6,189.36S228.34,170.64,219.65,169Z"/><path class="cls-2" d="M246.18,218.81c-.25-.42-1.9-12.72-1.9-12.72l14.53-28.81L235.2,208.57l-2.81.08-12,13.46.9,4,16.19-15.93Z"/><path class="cls-2" d="M273.26,291.06l.83,5.86,3.3,2.39,8.26,9.17h2c3.27,7.57,7.33,12.24,12.55,12.63-.92-5.93-6.57-14.44-13.13-23.45l-2.89-1.16-1.82-2.31Z"/><path class="cls-2" d="M316.2,278.75v-3.88h.57l.42-7.68,2.14-4.62,1.16-18.17s-.74,22.3,0,22a3.17,3.17,0,0,1,1.9.33v2.64s2.89-.74,2.48-2.56c1.89-.49,1.89-.08,1.89-.08s-.41-2.06,0-2.06,2.56-.09,2.56-.09v-1.48l3.47-.17v-2l2.4-.33v6.11l1.57-.08v-1.16h3.3v2.23s4-.58,3.88-.25,0,4.3,0,4.3,3.05-2.73,3.47,6.93a21.78,21.78,0,0,0,5.61.33l2.4,2.15-.66,4s2.47,13.87,2.47,14.2v25.52s-11.06-21.63-7.26-26.84c1.32-4.37.57-11,.57-11h-5l-1-1.73-2,6.11s5,11,5.63,14.36c-1,.62-1.4,0-1.4,0l.33,4.71-1.49.08s-3.3-9.66-4.46-9.9-.57,2-.57,2H339l-.25-3.47s-5,1.32-6.36-3.06c-2.89,2.65-9.5.66-9.5.66l.17-3.71s15.52-6.85,16-9.66c5-5-9.17-14-11.15-14a28.32,28.32,0,0,0-1.82,4.79s-1.81,4.54-4.29,4.71A33.49,33.49,0,0,1,316.2,278.75Z"/><path class="cls-3" d="M712.54,138.06s5.21-1.33,7.52,0,2.64,20.14,2.64,20.14l1.66,30.72,3-13.21s1.65-4,2.64-.33,4.29,58,4.29,58l-1.32,72.31-6.6-11.47-1.65-26.52-1.29,17.53-5-7.43-1.82-54.16-6.89-57.5S708.31,143.34,712.54,138.06Z"/><path class="cls-3" d="M745.16,159.19v47.89s-3,54.28,0,58.68,2.65,29.84,2.65,29.84,4,4.95,4.62,0,0-128.48,0-128.48-4-2.31-4.15,3.63S745.16,159.19,745.16,159.19Z"/><path class="cls-3" d="M770.26,209.39s3.31-16.51,8.26-8.91,2.64,17.5,2.64,17.5v69.36s-4.29,9.91-6.6,5.28-1.65-21.13-1.65-21.13l-2.65,15.85Z"/><path class="cls-3" d="M871.83,267.87s-8.64,3-13.74,6-17.31,9.48-17.31,9.48l-17.34,11.24s-23.62,15-26.92,20.31c13.49-12.06,39.91-26.59,39.91-26.59a23.11,23.11,0,0,1,8.64-2c1.26,0,1.36,1.94,2.81,2,1.66,0,4-1,5.78-.91.82,0,2-.61,2.7-.33s1,1.54,1.92,1.59c2.64.15,5.26.37,7.71.67,2.28.27,5.17-1.93,5.17-1.93l-5.93-4.25-1.37-.3-1.56.92-1.1-1.49,1-1.32-3.78-1.49-.6-1.65L869,270.61S879.59,267.38,871.83,267.87Z"/><path class="cls-3" d="M898.85,268.29a79.69,79.69,0,0,0-8.92,1.33c-2.2.66-9,11.77-9,11.77l-6.24-.44-1.91.28,4.07,1.21,1.25,1.73,1,.53s-1.38,1.85-3.22,4.46c-3.18,4.51-7.75,11.28-9,14.69,4.07-6.16,12.52-15.48,19.72-23,1.11-1.16.3-3.37,2.07-4.26,1.5-.75,3.88.63,5.84.22a13.91,13.91,0,0,0,6.33-3.85C902.89,270.8,898.85,268.29,898.85,268.29Z"/><path class="cls-2" d="M737.14,136.37v5.32l-2.88,4.18,1.44,1.32,3.19,4.08v47.78l1.54-47.23h2.09v7.37a40.32,40.32,0,0,0,2-3.85c.11-.55,0-4.84,0-4.84l3.31,3.08v12.88c.81-7.71,2.48-16.76,0-19.29L742.6,140S738.57,135.68,737.14,136.37Z"/></g></svg>