<svg id="Layer_10" data-name="Layer 10" xmlns="http://www.w3.org/2000/svg" viewBox="0 0 960 542.98"><defs><style>.cls-1{fill:#cd8af9;}</style></defs><path class="cls-1" d="M960,311.88l-243.92-1.42-7.47-10.68-14.86-20.15S690,267.85,684.61,264s-9.35-10.24-9.35-10.24l-2-10.68-7.37-11.67h-2.31L660,235.05l-.66,39.08s2.31,3.52,2.86,4.62,1.44,16.19,1.77,25.87-14.76-.55-15-1-3.41-5.61-3.41-5.61l-9.36-5v-3l-4.07-7.81h-6.5a23.47,23.47,0,0,1-2.86,2.31c-.44.11,1.21,10.46,1.21,10.46l3.75,5.39-4,6.94s-6.05.33-14.75,0c-8.15-4-12.55-4.19-13.21-4s-13.65,4-13.65,4l.47,3.08H304.75L303,295.75a9.71,9.71,0,0,1-7.05,1.11c-.33-7.27-5.4-14.1-5.4-14.1V271l-2.86-3.52-3.63,1.21,1.1,20.15-8.15,7.26s.66,7.82,1.1,9.36-4.4,3-4.4,3v-1.66l.88-.88c.53-1.37.72-2.62,0-3.52h-1.29a44.15,44.15,0,0,0,0-9.05l-.58.57V296c-.13-.67-.38-.72-.77,0a11.4,11.4,0,0,0,0,5.51c-.32-.48-.66-.46-1,0a6.2,6.2,0,0,0,0,4.4h1v3.2h-4.4v-1.22h.88v-3.08h.88a19.28,19.28,0,0,0,0-8.25h-.77V284.08l-.6,2.54-.39.44v3.19l-.89-.11v3.74c-.87.13-1.31,5.42-.77,6.39-2.31.44,0,4.84,0,4.84l.77,1.54v1.77s-7.26-2.43-6.49-2.32,0-2.53,0-2.53l1.32-.44c.46-2.22.72-4.31,0-5.72l-1.32-.11a10.15,10.15,0,0,0,0-6.06l-1.65-.33c.47-3.16.94-6.33,0-8.15l-1.05-1v-3.41l-.71,3.08-.55.55v4.52h-.55c-.69,1.47-.42,3.5,0,5.61-.65-.88-1.31-.7-2,0-.51.14-.6,4.05,0,4.74a.81.81,0,0,0,1.22,0l.31,7.88-136.39-.89L88.91,249.47,87.75,237,72.39,238l-4.2,11.43H56.54L32.43,299.06-1.1,304.5,0,543H961.1Z"/></svg>