<svg id="Layer_5" data-name="Layer 5" xmlns="http://www.w3.org/2000/svg" viewBox="0 0 960 542.98"><defs><style>.cls-1{fill:#240046;}.cls-2{fill:#48008c;}</style></defs><path class="cls-1" d="M240.83,485.5l14.54-6.6H301.6s54.83-16.84,97.44,7.93c12.22-6.94,29.39,1.65,29.39,1.65s71.67-8.59,79.93-1.65,101.06,1.65,101.06,1.65,62.75-5.29,65.4-1.65c7.92-12.55,34-16.85,34-16.85,7.27,1,23.12-23.45,23.12-23.45s19.16-17.17,26.75-12.88c12.23-9.25,25.79,4.29,25.79,4.29s21.44,16.85,16.49,30.39c13.21-.33,160.12,11.73,160.12,11.73L960,543l-961.68-.08L0,489.14C5.61,491.12,240.83,485.5,240.83,485.5Z"/><path class="cls-2" d="M672,488.15c2.37-3.64,13.57-10.76,15.83-12.14s17.72-5.94,17.59-5.45c0,0,3.68-3.77,4.23-4.1s19.82-16.29,19.82-16.29c-.55-.68,11.64-15,19.38-15.09-2.1,4.63,2.53,6.61,2.53,6.61l.5-8s4.73-1.85,6.87,0c.12,1.43.12,18.5.12,18.5s-2.32,10.35-6.28,12.11c1.1,2.31-.22,6.93-.66,6.82s-6.61,18.06-8.81,17.84c-1.87,3.85-7.26,6.27-7.26,6.27l-.33-6.71H733.6v-8.15c0,.77-9.57,16.84-9.57,16.84s-7,6.28-7.49,6.17,13-29.06,13-29.06l-.11-4.19s5.51-9.8,5.28-9S723,477.25,723,477.25l-1.55-.88-.33-6.17-15.74,21.47-1.76.44-.77,1.87-3.19-1,.66-6.6-4.74,6.16-2.64.33.11-5.5-2.53,1.1H688.8l-.44-5.73-6.94,6.39s-4.51,2.86-4-1.43l-2,.22Z"/></svg>