<svg xmlns="http://www.w3.org/2000/svg" viewBox="0 0 960 542.98"><defs><style>.cls-1{fill:#240046;}.cls-2{fill:#48008c;}.cls-3{fill:#d984fa;}.cls-4{fill:#e0aaff;}</style></defs><g id="Layer_8" data-name="Layer 8"><path class="cls-1" d="M545.26,388.65s3.32,7.43,8.85,10.16c-2.49,3.71-4.42,6.44-4.42,6.44s-9.54-7.43-9.46-9.25S545.26,388.65,545.26,388.65Z"/></g><g id="Layer_6" data-name="Layer 6"><path class="cls-2" d="M494.66,376.73c-2.32,1-10.44,3.36-10.82,3.5.32-.31,6.45-4.31,5.74-5.73-1.9,1.07-8.73,5.24-8.73,5.24a4.16,4.16,0,0,0-1.17.12c-.24-.66-1.91-4.19-10.09-4.29-2.31-2.86-6.82-5.06-6.82-5.06s-1.66-5.95-7.49-4.63c-1.1-.66-.66-.31-.66-.31h3s5.18-8.93,1.65-11.58h-1.65l.33-6.27s12.11-1.43,8.15-11.56c-4.11-4.26,3.22-6.89,3.65-6.72,0,0-7.5-3.63-9.93,6.5s-15.74,1.43-15.74,1.43,4-14.86-19.71-11.12c-10.45,3.19-11.23,8.26-11.23,8.26S381.74,356.2,408.49,358c10.81,5-6.37,8.68-9.14,9.68-7.7,1.44-15.85,20.7,15.75,9.36-11,1.1-13-2.2-13-2.2-2-3.3,12.44-2.75,12.44-2.75s22.78-8.59,11.67-21.36c1-4,7-3.74,7-3.74s-8.15,9,3,18.27a4,4,0,0,1-.44,2.09s-14.42,4.08-13.21,11.34a16.65,16.65,0,0,1-.77,3.09l2.31,1.87-2,3.85s-5.83,4.18-8.25,10.46a33.09,33.09,0,0,1-5.29,9.47l-4.84.55-1.65,1.76,2.64,2.2-.11,3.41-2.09,2.76s1.76,3.19,10.34,1a4.65,4.65,0,0,0,1.22-5.75l-5.73-.75.88-2.53,4.85-.33,10.34-10s5-3.52,4.63-5.39c2.86-2,3.3-3.31,3.3-3.31s1.32,5,3.3,5a16.4,16.4,0,0,0,1.32,5.39s-5.94,4.74-7.7,8c-4.85,1.76-19.86,8.15-17.73,17.94A24.56,24.56,0,0,0,424,425.22l-.77,6.83s-.55,3.85,2.2,4.95.23,7.93.23,7.93l-4,4.95,3.19,5.62-1.21,3.08,2.1,2.09-8.27.76a12.93,12.93,0,0,0-6.71,2.62l-10.24,7.85c-.77-.11-15.52-2.92-9.69,11.16h0l.05.11c0,.06,0,.12.08.19l0,0c.57,1.25,2.64,5.9,2.07,6.43s.08,3.43,2.8,3.64,10.61,0,10.61,0,1.61-2.27-.2-3.26c-1.44-.78-3.5-3.92-4.32-5.21l0-.08v-5.36l26.32-8.62c4.07,1.1,9.91-10.24,9.91-10.24l11.45-10.24s-.11,13.54,1.21,13.88,0,14.75,0,14.75-4.52,7.92,2.53,9.69a23.87,23.87,0,0,1,1,6.49l-.43,3.85,1.56,3.22h13s.5-5.45-1.32-5.45c-1.18,0-2.09-7.37-2.8-8.55-1.32-2.21-2.09-7.16-2.09-7.16l1-39.19,1.46-4.08-11-10.57,1.76-6.71c5.58.78,9.68.54,11.56-1.21l-8.37-6.61-1.76-11.12,1-5.72v-4.08s4.63-5.83-.88-9.79c0-4,1.21-4,1.21-4l10.24,5,8.45.68c-.41.87-1.17,1.54-.92,1.57s.34.87,2.78-1.65a34,34,0,0,1,6.27.53c.17.87,1.42,1.69,2.73,2.32l-2-2.53s5.47,2.57,6.67,1.46c-4.34-2.73-7.2-4.17-7.2-4.17S495.11,378.42,494.66,376.73Z"/><path class="cls-1" d="M494.66,376.73c-2.32,1-8.44,3.36-8.82,3.5.32-.31,4.45-4.31,3.74-5.73a72.45,72.45,0,0,0-6.73,5.24,4.16,4.16,0,0,0-1.17.12c-.24-.66-1.91-4.19-10.09-4.29-2.31-2.86-6.82-5.06-6.82-5.06s-1.66-5.95-7.49-4.63c-1.1-.66-.66-.31-.66-.31h3s5.18-8.93,1.65-11.58h-1.65l.33-6.27s12.11-1.43,8.15-11.56c-4.11-4.26,1.22-6.89,1.65-6.72,0,0-5.5-3.63-7.93,6.5s-5.94,3.85-5.94,3.85a8.11,8.11,0,0,1,4.11-5.38s-3.73-1.28-10.17,3.51c-1.32-1.43-3.74-.55-3.74-.55s4-14.86-19.71-11.12c-10.45,3.19-11.23,8.26-11.23,8.26S383.74,356.2,410.49,358c10.81,5-6.37,8.68-9.14,9.68-7.7,1.44-15.85,20.7,15.75,9.36-11,1.1-13-2.2-13-2.2-2-3.3,12.44-2.75,12.44-2.75s22.78-8.59,11.67-21.36c1-4,7-3.74,7-3.74s-8.15,9,3,18.27a4,4,0,0,1-.44,2.09s-14.42,4.08-13.21,11.34a16.65,16.65,0,0,1-.77,3.09l2.31,1.87-2,3.85s-5.83,4.18-8.25,10.46a33.09,33.09,0,0,1-5.29,9.47l-4.84.55-1.65,1.76,2.64,2.2-.11,3.41-2.09,2.76s1.76,3.19,10.34,1a4.65,4.65,0,0,0,1.22-5.75l-5.73-.75.88-2.53,4.85-.33,10.34-10s5-3.52,4.63-5.39c2.86-2,3.3-3.31,3.3-3.31s1.32,5,3.3,5a16.4,16.4,0,0,0,1.32,5.39s-5.94,4.74-7.7,8c-4.85,1.76-19.86,8.15-17.73,17.94A24.56,24.56,0,0,0,426,425.22l-.77,6.83s-.55,3.85,2.2,4.95.23,7.93.23,7.93l-4,4.95,3.19,5.62-1.21,3.08,2.1,2.09-8.27.76a12.93,12.93,0,0,0-6.71,2.62l-10.24,7.85c-.77-.11-15.52-2.92-9.69,11.16h0l.05.11c0,.06,0,.12.08.19l0,0c.57,1.25,2.64,5.9,2.07,6.43s.08,3.43,2.8,3.64,10.61,0,10.61,0,1.61-2.27-.2-3.26c-1.43-.78-3.5-3.92-4.32-5.21l0-.08v-5.36l26.32-8.62c4.07,1.1,9.91-10.24,9.91-10.24l11.45-10.24s-.11,13.54,1.21,13.88,0,14.75,0,14.75-4.52,7.92,2.53,9.69a23.87,23.87,0,0,1,1,6.49l-.43,3.85,1.56,3.22h13s.5-5.45-1.32-5.45c-1.18,0-2.09-7.37-2.8-8.55-1.32-2.21-2.09-7.16-2.09-7.16l1-39.19,1.46-4.08-11-10.57,1.76-6.71c5.58.78,9.68.54,11.56-1.21l-8.37-6.61-1.76-11.12,1-5.72v-4.08s4.63-5.83-.88-9.79c0-4,1.21-4,1.21-4l10.24,5,7.11.74c-.61.63-1.39,1.37-1.6,1.35-.38,0,.9,1.4,3.34-1.12a62.27,62.27,0,0,1,6.44.19,3.2,3.2,0,0,0,2,2.29l-.86-2.93s4.37,3,5.57,1.86c-4.34-2.73-5.2-4.17-5.2-4.17S495.11,378.42,494.66,376.73Z"/></g><g id="Layer_21" data-name="Layer 21"><path class="cls-2" d="M442.85,352.58c2.28-1,4-2.31,4.69-4a11,11,0,0,0,.84-2.76c.17-1.12.24-2.32.35-3.55a10.06,10.06,0,0,1,.92-3.89,6.21,6.21,0,0,1,3.09-2.67,17.08,17.08,0,0,1,3.59-1c1.2-.23,2.4-.37,3.6-.48l.06.3a26.84,26.84,0,0,0-6.58,2.49,4.44,4.44,0,0,0-2,2.2,8.43,8.43,0,0,0-.34,3.14l.16,3.63a7.14,7.14,0,0,1-1,4.11,6.51,6.51,0,0,1-3.38,2.66,6.32,6.32,0,0,1-4,.09Z"/><path class="cls-2" d="M447.15,377s-7,7.87-4.85,12.66-4.84,1.43-4.84,1.43-.28-1.65-.88-1.65-3.11,1.23-2.23,3.33a6,6,0,0,0,3.44,2.89H439s-.17,4.57,2.64,4.95,5.62-4.07,5.51-4-3.2-.33-3.36-.33a18,18,0,0,1-3-2.32,18.1,18.1,0,0,0,8.42-2s5.78-7.37-2.54-10C445.2,381.41,447.15,377,447.15,377Z"/><path class="cls-2" d="M439.6,401.74a13.6,13.6,0,0,1,2.22.15s-.3,3.37-2.76,4.41a11,11,0,0,0-3.95,2.9l-1.52-1.43,3.72-3.28Z"/><path class="cls-2" d="M431.18,409.13s-.44,3.34,3.52,2A117.89,117.89,0,0,0,446.14,406c-.6,1.77-14.9,11.55-18.37,11.56-4.15,0-13.62,9.78-13.62,9.78s-3.06-.16-.79-2.14c-.25-3.34,2.23-6.5,2.23-6.5S422.06,410.28,431.18,409.13Z"/><path class="cls-2" d="M460.71,377.46c.09-.12,2.89-5.61,3.1-5.61s3.51,4.62,3.67,4.62S471,377,471,377s3.34,0,4.58,1.57,5.72.86,5.72.86,1.09-.19,1.56.27a24.82,24.82,0,0,1-5.37,4.08c-.1,0-.47-.07-.59-.05-.33-.42-6.21-.39-6.13-1.45,0-.49,0-1.89,0-1.89l-6.05-.21Z"/><path class="cls-2" d="M424.22,433.65l4.28,8.22s7.47-.95,8.19-.57-.28,2.76-.28,2.76,7.93,2.69,8.09,2.47,8.87-10.79,8.48-10.84-2.81,2-3.19,1.43-.28-2.37-1-2.37-1.27-.16-1.32-.33-.39-1.92-.39-1.92h-1l-.44-1.22s-3.74-.49-4.18,0a1.08,1.08,0,0,1-1.05.33v-.55l-1.93-.22-.6,1.55-4.85,2.2Z"/><path class="cls-2" d="M453,442.73c.54,0,3,3.39,3,3.39l2.64,17.67-2.83,1.65-2.94,13.62-.51-.82-1.11-27.44Z"/><path class="cls-2" d="M423.22,449.33c.41.41,3.38,5.29,3,5.54a23,23,0,0,0-1.51,3.4l3,2.4,2-2.17,7.62-5.44v-2.73s-3.63.08-3.88,0a33.36,33.36,0,0,0-3.74,2.64l1.34-2.64L428,448.1Z"/><path class="cls-2" d="M423.64,381.51c4.44,1.27,8.62,1.94,12.3,1.47-7.75-1.78-11.12-3.38-11.76-4.86Z"/><path class="cls-2" d="M449.81,364.79h0a1.61,1.61,0,0,1-1.61-1.6V356.6a1.61,1.61,0,0,1,1.61-1.6h0l.27,0a1.61,1.61,0,0,1,1.33,1.57v6.59A1.6,1.6,0,0,1,449.81,364.79Z"/><path class="cls-2" d="M449.81,355s9,1.37,11.32-.7c-.13,2.4-10.86,3.14-10.86,3.14Z"/><path class="cls-2" d="M450.35,362.31l9,2.85a48.19,48.19,0,0,1-10.28-.53Z"/></g><g id="Layer_15" data-name="Layer 15"><path class="cls-3" d="M389.18,416.75v2s15.75-.33,15.75-.6a27.13,27.13,0,0,1,2.53-2.92s.82-3.47-2.37-4.4a14.53,14.53,0,0,0-6.44-.22l-.28,2.47Z"/><path class="cls-3" d="M410.87,410.09c-.17.39-1.05,2.48-.22,2.75a37.82,37.82,0,0,0,5,.39l.66,3.91s4-1.93,3.75-2.2-.83-5.62-.83-5.62C416.83,408.29,413.92,409,410.87,410.09Z"/><path class="cls-4" d="M389.18,416.64V418s9.52-1.1,9.58-1.32,0-2.25,0-2.25h-1.38l1-1.33Z"/><path class="cls-4" d="M398.65,410.59l-.28,2.47a40.11,40.11,0,0,1,4.35,1v1.26l2-.27.72-2,1.38.28.22-1.15-.08-.09a5.85,5.85,0,0,0-5-1.89Z"/><path class="cls-4" d="M415.32,409l.34,2.47h1.27l.27,2.14a14.43,14.43,0,0,0,2.59.37c0-.17-.57-4.75-.57-4.75l-1.47-.32A5.23,5.23,0,0,0,415.32,409Z"/></g></svg>