<svg id="Layer_3" data-name="Layer 3" xmlns="http://www.w3.org/2000/svg" viewBox="0 0 960 542.98"><defs><style>.cls-1{fill:#7b2cbf;}.cls-2{fill:#bb50ef;}.cls-3{fill:none;stroke:#7b2cbf;stroke-miterlimit:10;}</style></defs><path class="cls-1" d="M703.88,333.58s-37.38,9.54-57.34,8.22c-.11-1.9-.35-4.23-.9-5.14,2.64-1,1.43-5.07,1.43-5.07l1.87-.77v-6.16l-1.1.22v-1.76l-1.87.33v-5.29h-1.43v-6.6l-1-4.08-.78,4.41-.44,1.32-.74,6.6h-.8l.11,2.43h-1.21l.22,4.62H638.7s-.11,3.52,0,5.62,5,4,5,4l.56,5.14c-.23,0-13.22-.72-20.16-.12a16.09,16.09,0,0,1-.77-6.23l1.65-.66s.44-4.52-.44-5.73c3.41-1.32.44-9,.44-9v-3.08l-4.51-6.16a2,2,0,0,1-2.1,0c1.66-2.76-2.2-6.06-2.2-6.06s.11-8,.22-8.47-1.76-8.7-1.76-8.7l.11,8.81h-.77L613.27,310l1.87,1.1L615,314.2l1.87,3.3h-1.32l-1.65,9.25s6.83,7.93,6.94,8.26.54,3.64.94,6.65a266.4,266.4,0,0,0-30.67,5.13s-69.14,12.77-86.75-2.2-14.09-.89-33.91-5.73-18.05-17.17-18.05-17.17l-12.77-.88v-7.05l-3.53-4.4v-8.81l-6.16-2.2-7.49-10.13H412l-.13,6.16s1.32,13.66-4.4,12.77-12.33,12.77-12.33,12.77L389.89,323v6.16L363,345,357.75,364H320.32l-10.57-4s-7.45-3.82-20.78-3.6c2.89-3.95-.75-10.81-.75-10.81a31.78,31.78,0,0,1-3.05-1.2c-.33-.24-.5-8.17-.66-8.83s-2.31,4.62-2.31,4.62.08,9.58,0,10-1.08,0-1.08,0l-.41-2.06-2.56-3.06a31.67,31.67,0,0,0-1.74,5.57l-.4,5.08a10.07,10.07,0,0,0,.33,2c-.81.15-1.63.32-2.46.5l-.11-.85,2.23-1.57v-.09a18.13,18.13,0,0,1,.4-5.08l.34-4.33-1.08-.08v-5.7l-1.24-2a76,76,0,0,0,0-9.25,15.72,15.72,0,0,0-3.71,9.25l-.66,7.18-.66,2h-1.24l-.5,7.34s2.81.75,2.07.83c-.47.05-.21,2,0,3.35-.9.24-1.81.5-2.74.78-18.49-10.13-268.71-8.17-268.71-8.17V542.94L960,543V342.49ZM280,357.11l1.41-3.3a8.66,8.66,0,0,0,.44,3.06Z"/><path class="cls-1" d="M276.41,350.62l-.4,5.08A18.13,18.13,0,0,1,276.41,350.62Z"/><path class="cls-1" d="M276.41,350.62l-.4,5.08A18.13,18.13,0,0,1,276.41,350.62Z"/><polygon class="cls-1" points="319.11 354.3 319.44 357.03 318.61 358.35 318.61 360.17 316.88 360.17 316.47 356.04 319.11 354.3"/><path class="cls-1" d="M324.15,351.83h4.45l-.49-3.64s1.32.91,1.24.33.09-6.6,0-6.69-.91-.41-.91-.66-.25-2.8-.25-2.8l-1.43.33-3.28,5.69Z"/><path class="cls-1" d="M309,340.68l6.68,4,4.54-.49s4.79-7.27,4.79-7.6v-4.79s2,1.32,2-1.48V309.22h-1l-.24-5-1.49-2.15h-4.87l-8.51,9.49-3,7.27Z"/><path class="cls-2" d="M269.26,359.38l-.13-2.3.26-.2-.28-1.26-1.47-.24.52-7.68,1-.06.92-1.93.17-6.57c1-4.16,2.14-8,4.2-9.86l-.35,2.7-2.37,7.76.22,8.15-1.07,2.48-.52,8.91Z"/><path class="cls-2" d="M277.38,355.82l-1.29.65c-.58-2.53.24-5.85,1-8.4.47-1.62,1-3.37.81-3.81-.44-.94,2,2.14,1.32,6.66S277.38,355.82,277.38,355.82Z"/><path class="cls-2" d="M284.45,335.51c0,.77-.9,11.28-.9,11.28H284l.33,7.54h.72s.22,2.7-.27,2.7-2.74.3-2.74.3-1.61-3,0-9.05a21.41,21.41,0,0,1,.11-8.16A12.87,12.87,0,0,1,284.45,335.51Z"/><path class="cls-2" d="M317.51,360.17h-.63l-.29-2.94-.12-1.19,2.64-1.74-.16,1.15-.39,1.52-1,1Z"/><path class="cls-2" d="M324.15,351.83c.38-.06.62-.73,1.18-1.24-.22-.5-.5-5.56-.28-5.45s3.14-3.25,3.14-3.25-.19-.84-1.24-.52c-.25-.55.25-1.67.09-2a2.76,2.76,0,0,1-.28-.65c-.27.38-3.28,5.69-3.28,5.69Z"/><path class="cls-2" d="M311.57,342.18c-.72-.5-2.33-1.14-2.92-1.56.11-.49-.72-8.36-.55-8.36s-1-12.66-.14-13.38c1-2.19,1.57-5.06,3-7.27,4.08-4.73,8.32-9.5,8.48-9.54a7.7,7.7,0,0,1,1.29.13l-.82,2.75-1.43,1.49s.16,3,.16,3.19-4.22,4.74-4.22,4.74l1.14-.22.11,2h.77l.55-2.42.88-1.6,1.87.11s.5,10.29.17,10.46-3,7.38-3,7.38l-2.46.33V329l-1.39.17.16,2.15-1.26,1.1Z"/><path class="cls-2" d="M356.18,367v-5.53s3.49-3.9,3.49-4.39.48-9.49.48-9.49a36.44,36.44,0,0,1,11.22-8c7.52-3.64,14.81-9.7,18.52-10.44V323a18.48,18.48,0,0,0,2.54,2.89c-1.24,3.38-.47,9.87-2.56,12.88-4.13,5.94,9.41-11.56,9.41-11.56l-3.71-1.07-.39-6.23s4.64-8.43,5.84-9c6.31-6.83,4.87-1,4.87-1l-.83,2.56,2.07.17-.83,7.26,2.81-5.37v-3.79l0-3-.27-.6-1-6.6,4.13-7.6s-.2-4.57,0-4.65,5.23,0,5.23,0l-.4,10.35s-6.44,15-5.61,15.11,7-7.6,7-7.6-4.87,11.81-5.12,11.81-32.45,40.62-32.45,40.62l1.33-4.62h-1.74s-.33-4.38,0-4.71,2.4-4.37,2.4-4.37L378.48,349l-3.22-1.24.41-2.81-1.49-.66-3.71,4.38-3.31-.41-6.27,15.35-2.56,3.06Z"/><path class="cls-3" d="M416.13,332.34c.57-1.49,2.31-15.94,2.8-15.85a23.43,23.43,0,0,0,2.4,0s-2.4,17.75-3.39,18.16S416.13,332.34,416.13,332.34Z"/></svg>