<svg id="Layer_25" data-name="Layer 25" xmlns="http://www.w3.org/2000/svg" viewBox="0 0 960 542.98"><defs><style>.cls-1{fill:#e9c7ff;}</style></defs><path class="cls-1" d="M.32,284.66s5.4-24.91,10.42-25.5c1.41-.17,7.39,2.73,8.81,5.5,3.45,6.73,3.29,33.46,8.81,33.18,28.59-1.44,70.69-15.17,86,8.24,23.78,36.42,126.49-50,126.49-50l10.42-.28,8.62-4.34,26.85,5.94,17.47,48.26s123.89,4,140.41-7.81c4.56-3.26,11.33-33.77,18.43-37.42a22.28,22.28,0,0,1,10.65-2.48c2.45,0,7,29.41,9.41,30.14,6.07,1.84,13.7,2.37,18,.36,1.08-.52-.22-4.09.73-4.45,2.58-1,3.7-4.36,5.05-1.82.32.6,3.65,9.7,3.68,9.85C518,323.37,741,317.91,747.36,309.64c0,0,18.94-34.11,22.9-35.31s10.9,13,10.9,13l4.75,18.31s69.57-10.55,90.37-14.59,36-12.14,51.31-1.52S960,316.4,960,316.4V543H-.69Z"/></svg>