<svg xmlns="http://www.w3.org/2000/svg" viewBox="0 0 960 542.98"><defs><style>.cls-1{isolation:isolate;}.cls-2{mix-blend-mode:multiply;}.cls-3{fill:#d984fa;}</style></defs><g class="cls-1"><g id="Layer_33" data-name="Layer 33" class="cls-2"><path class="cls-3" d="M424.33,186.49l-24.56-52.42L436.21,62a3.73,3.73,0,1,0-6.66-3.37l-33.8,66.89L367,64.12a3.73,3.73,0,0,0-6.94.46l-22.6,71.94-32.1-68.94a3.73,3.73,0,0,0-6.77,3.15l56.71,121.8a3.74,3.74,0,0,0,3.39,2.16,3.81,3.81,0,0,0,1.57-.35,3.73,3.73,0,0,0,1.81-5l-19.94-42.83L364.31,76l53.43,114c-5,4.75-16.39,17.56-15.26,34.72,1.26,19.13,5,51.61,5.25,53.43.52,5.78,13.25,15.55,23.42,17.81a23.31,23.31,0,0,0,5.05.58c7.07,0,12.53-3.76,15.63-10.91,8.29-19.15,6.57-71.64-2.88-87.76C442.11,186.21,431.25,185.08,424.33,186.49ZM445,282.67c-1.91,4.41-4.73,6.42-9,6.4-8.89-.08-19.53-9.14-20.86-11.73-.13-1.11-4-33.93-5.22-53.1-1-15.83,11.73-27.79,14.26-30,2.54-.83,12.16-3.09,18.31,7.41C450.78,215.77,452.31,265.75,445,282.67Z"/><path class="cls-3" d="M457.92,47.34a3.73,3.73,0,1,0-7.13,2.2l30.36,98.38a3.73,3.73,0,0,0,3.56,2.63,3.89,3.89,0,0,0,1.11-.17,3.74,3.74,0,0,0,2.46-4.67Z"/><path class="cls-3" d="M495.35,72.89a4.9,4.9,0,0,0,.54,0l14.59-2.12,3.76,70.62a3.72,3.72,0,0,0,3.72,3.53h.2a3.72,3.72,0,0,0,3.53-3.92L517.9,69.66l22.3-3.22a3.73,3.73,0,1,0-1.07-7.39L517.5,62.18l-.74-13.94a3.73,3.73,0,1,0-7.45.4l.77,14.61-15.26,2.21a3.73,3.73,0,0,0,.53,7.43Z"/><path class="cls-3" d="M727.75,83.46a3.51,3.51,0,0,0-.75-.88c-5.17-4.41-13.31-7.85-24.15-1.86L700.2,42.27a3.73,3.73,0,0,0-7-1.62l-15.08,26c-6.65-8-19.24-23-20.48-24.26a3.72,3.72,0,0,0-5.24,0,3.77,3.77,0,0,0-.05,5.28c1.2,1.24,15,17.75,23.45,27.87A3.73,3.73,0,0,0,682,75l11.64-20,2.26,32.79h0l2.82,40.86a3.73,3.73,0,0,0,3.72,3.48h.26a3.73,3.73,0,0,0,3.47-4l-2.69-38.89c9.07-6.54,14.5-4.34,18.25-1.31,2.93,5.53,2.37,18.86,1.87,30.65-.08,1.92-.16,3.83-.23,5.73a3.72,3.72,0,0,0,3.59,3.86h.14a3.74,3.74,0,0,0,3.73-3.59c.07-1.88.15-3.78.23-5.68C731.62,104.33,732.2,90.62,727.75,83.46Z"/><path class="cls-3" d="M629.2,111.87a3.74,3.74,0,1,0-5.5-5.06c-7.67,8.35-24.73,8.81-38,1-9.5-5.49-12.11-16.27-13.88-26.93,1.27-10.47,5.79-16.41,12.64-22.43,11.17-5.53,23.71-5.11,38.32,1.28a3.73,3.73,0,0,0,3-6.84c-16.72-7.32-31.9-7.62-45.11-.89a3.82,3.82,0,0,0-.75.51c-8.28,7.2-14.1,14.72-15.57,28.05a3.42,3.42,0,0,0,0,1c2,12,5.12,25.49,17.58,32.7a49.08,49.08,0,0,0,24.18,6.54C614.93,120.83,623.43,118.14,629.2,111.87Z"/><path class="cls-3" d="M548.32,218.88a3.74,3.74,0,0,0-6.93.61c-.34,1.18-4.72,16.13-8.91,30.48-.71-23.7-4.53-39.34-8.1-49-4.23-11.44-9.35-17.12-15.62-17.36-9.61-.44-16.08,13-16.79,14.56a3.73,3.73,0,1,0,6.77,3.13c2-4.2,6.39-10.34,9.73-10.23,1,0,4.68,1.06,8.91,12.49,4.49,12.11,9.39,34.42,7.23,71.88-.14,2.44-.31,5.47,3,6a3.77,3.77,0,0,0,.58,0,3.83,3.83,0,0,0,3.65-2.82c.35-1.31,8.22-28.26,14-48l18.79,37.81a3.73,3.73,0,1,0,6.68-3.32Z"/><path class="cls-3" d="M665.13,243.35a192.34,192.34,0,0,0,24.93-18,3.73,3.73,0,0,0-4.93-5.61c-.24.21-19.22,16.74-39.81,25.53l-.1,0a64.88,64.88,0,0,1-18,5.08c-23.32,2.53-26.06-12.49-26.16-13.1a4.7,4.7,0,0,0-.18-.74c-2.91-8,1.85-13.09,12.92-20.81a3.72,3.72,0,0,0-.77-6.53c-5.47-2.16-13.8-6.9-15.16-10.68-1.89-5.23.79-9,3.36-11.22,5-4.34,13.28-6.07,17.72-3.72.85.45,3.43,1.82,2.82,6.95a3.73,3.73,0,1,0,7.41.88c1.06-8.89-3.76-12.85-6.73-14.42-7.21-3.83-18.69-1.78-26.11,4.67-6,5.24-8.05,12.31-5.5,19.39,1.93,5.36,8.42,9.67,13.47,12.33-7.36,5.7-14.68,13.67-10.54,25.46.66,3,5.33,19.3,28.34,19.29a54,54,0,0,0,5.91-.33,71.9,71.9,0,0,0,19.69-5.45c11.71-1.9,44.19-4.08,48.3,9.4,1.17,3.84.94,6.75-.71,8.91-3.55,4.65-13.09,5.43-16.46,5.34a3.74,3.74,0,0,0-.22,7.47h.76c3.48,0,15.94-.56,21.85-8.28,3.17-4.15,3.81-9.4,1.92-15.62C698.94,245.75,680.13,243.13,665.13,243.35Z"/><circle class="cls-3" cx="428.71" cy="238.05" r="7.27" transform="translate(44.72 543.03) rotate(-67.5)"/></g></g></svg>